<svg xmlns="http://www.w3.org/2000/svg" width="14.659" height="14.717" viewBox="0 0 14.659 14.717">
  <g id="add-friend" transform="translate(-1)">
    <path id="Path_8206" data-name="Path 8206" d="M15.659,9.112A3.017,3.017,0,0,0,10.4,7.091a6.493,6.493,0,0,0-1-.41,3.622,3.622,0,1,0-3.879,0A6.476,6.476,0,0,0,1,12.848v1.437a.431.431,0,0,0,.431.431H13.5a.431.431,0,0,0,.431-.431V12.848a6.458,6.458,0,0,0-.075-.976A3.022,3.022,0,0,0,15.659,9.112ZM4.708,3.622A2.759,2.759,0,1,1,7.467,6.381,2.762,2.762,0,0,1,4.708,3.622Zm8.364,9.227v1.006H1.862V12.848A5.6,5.6,0,0,1,9.917,7.813a3.017,3.017,0,0,0,2.724,4.317,3.035,3.035,0,0,0,.381-.024A5.579,5.579,0,0,1,13.072,12.848Zm.193-1.673-.032.009a2.131,2.131,0,1,1,.032-.009Z" fill="#585858"/>
    <path id="Path_8207" data-name="Path 8207" d="M363.156,272.862h-.431v-.431a.431.431,0,1,0-.862,0v.431h-.431a.431.431,0,1,0,0,.862h.431v.431a.431.431,0,1,0,.862,0v-.431h.431a.431.431,0,0,0,0-.862Z" transform="translate(-349.652 -264.182)" fill="#585858"/>
  </g>
</svg>
