<svg xmlns="http://www.w3.org/2000/svg" width="14.257" height="14.257" viewBox="0 0 14.257 14.257">
  <g id="Group_308" data-name="Group 308" transform="translate(0 0)">
    <g id="add-button" transform="translate(0 0)" style="isolation: isolate">
      <g id="Group_296" data-name="Group 296" transform="translate(0 0)">
        <g id="Group_295" data-name="Group 295" transform="translate(0 0)">
          <path id="Path_8208" data-name="Path 8208" d="M13.663,6.535a.594.594,0,0,0-.594.594,5.94,5.94,0,1,1-1.725-4.186.594.594,0,1,0,.843-.837,7.129,7.129,0,1,0,2.07,5.023A.594.594,0,0,0,13.663,6.535Z" transform="translate(0 0)" fill="#9a9a9a"/>
        </g>
      </g>
      <g id="Group_298" data-name="Group 298" transform="translate(4.158 4.158)">
        <g id="Group_297" data-name="Group 297">
          <path id="Path_8209" data-name="Path 8209" d="M117.347,114.376h-1.782v-1.782a.594.594,0,1,0-1.188,0v1.782h-1.782a.594.594,0,1,0,0,1.188h1.782v1.782a.594.594,0,1,0,1.188,0v-1.782h1.782a.594.594,0,1,0,0-1.188Z" transform="translate(-112 -112)" fill="#9a9a9a"/>
        </g>
      </g>
    </g>
  </g>
</svg>
