<svg id="active" xmlns="http://www.w3.org/2000/svg" width="14.591" height="14.591" viewBox="0 0 14.591 14.591">
  <path id="Path_8193" data-name="Path 8193" d="M135.612,418.736a2.283,2.283,0,0,1-2.28-2.28.456.456,0,1,1,.912,0,1.368,1.368,0,0,0,2.736,0,.456.456,0,1,1,.912,0A2.283,2.283,0,0,1,135.612,418.736Zm0,0" transform="translate(-129.532 -404.145)" fill="#585858"/>
  <path id="Path_8194" data-name="Path 8194" d="M11.1,78.682H1.064A1.064,1.064,0,0,1,.372,76.81a.421.421,0,0,1,.049-.037,4.086,4.086,0,0,0,1.4-3.082v-1.7A4.229,4.229,0,0,1,5.087,67.86a.456.456,0,0,1,.21.888,3.32,3.32,0,0,0-2.561,3.247v1.7A5,5,0,0,1,.971,77.5l-.027.021a.15.15,0,0,0-.032.094.154.154,0,0,0,.152.152H11.1a.154.154,0,0,0,.152-.152.145.145,0,0,0-.033-.094l-.026-.021a4.958,4.958,0,0,1-1.277-1.666.456.456,0,1,1,.824-.39,4.064,4.064,0,0,0,1,1.328.526.526,0,0,1,.046.035,1.063,1.063,0,0,1-.691,1.873Zm0,0" transform="translate(0 -65.915)" fill="#585858"/>
  <path id="Path_8195" data-name="Path 8195" d="M238.62,7.9a3.952,3.952,0,1,1,3.952-3.952A3.956,3.956,0,0,1,238.62,7.9Zm0-6.992a3.04,3.04,0,1,0,3.04,3.04A3.043,3.043,0,0,0,238.62.912Zm0,0" transform="translate(-227.98)" fill="#585858"/>
  <path id="Path_8196" data-name="Path 8196" d="M337.216,88.676a.456.456,0,0,1-.456-.456V86.244h-.3a.456.456,0,1,1,0-.912h.76a.456.456,0,0,1,.456.456V88.22A.456.456,0,0,1,337.216,88.676Zm0,0" transform="translate(-326.424 -82.9)" fill="#585858"/>
</svg>
