<svg id="crowns" xmlns="http://www.w3.org/2000/svg" width="26.903" height="20.493" viewBox="0 0 26.903 20.493">
  <path id="Path_8252" data-name="Path 8252" d="M91,300v4.729h17.34V300Zm0,0" transform="translate(-86.218 -284.236)" fill="#ff9f00"/>
  <path id="Path_8253" data-name="Path 8253" d="M256,300h8.67v4.729H256Zm0,0" transform="translate(-242.548 -284.236)" fill="#ff7816"/>
  <path id="Path_8254" data-name="Path 8254" d="M107,94.161l-1.277,2.491H90.777L89.5,94.161a11.277,11.277,0,0,1,17.5,0Zm0,0" transform="translate(-84.798 -85.271)" fill="#ff4b00"/>
  <path id="Path_8255" data-name="Path 8255" d="M264.749,94.161l-1.277,2.491H256V90a10.682,10.682,0,0,1,8.749,4.162Zm0,0" transform="translate(-242.549 -85.27)" fill="#cc1e0d"/>
  <path id="Path_8256" data-name="Path 8256" d="M58.135,74.96,55.187,84.986H37.847L34.9,74.96l1.986-.757a5.555,5.555,0,0,0,4.02,2.9h.82c1.813-.284,3.168-3.058,3.72-5.707h2.144c.552,2.648,1.907,5.423,3.72,5.707h.82a5.555,5.555,0,0,0,4.02-2.9Zm0,0" transform="translate(-33.065 -67.646)" fill="#fdbf00"/>
  <path id="Path_8257" data-name="Path 8257" d="M267.618,74.961,264.67,84.986H256V71.4h1.072c.552,2.648,1.907,5.423,3.72,5.707h.82a5.555,5.555,0,0,0,4.02-2.9Zm0,0" transform="translate(-242.549 -67.646)" fill="#ff9f00"/>
  <path id="Path_8258" data-name="Path 8258" d="M2.417,64.729a2.365,2.365,0,1,1,0-4.729,2.365,2.365,0,1,1,0,4.729Zm0,0" transform="translate(0 -56.847)" fill="#ff9f00"/>
  <path id="Path_8259" data-name="Path 8259" d="M423.365,64.729a2.365,2.365,0,0,1,0-4.729,2.365,2.365,0,1,1,0,4.729Zm0,0" transform="translate(-398.878 -56.847)" fill="#ff7816"/>
  <path id="Path_8260" data-name="Path 8260" d="M213.365,0a2.365,2.365,0,1,0,2.365,2.365A2.361,2.361,0,0,0,213.365,0Zm0,0" transform="translate(-199.913 0)" fill="#ff9f00"/>
  <path id="Path_8261" data-name="Path 8261" d="M207.395,173.7l-2.7,2.7,2.7,2.7,2.7-2.7Zm0,0" transform="translate(-193.943 -164.572)" fill="#ff4b00"/>
  <path id="Path_8262" data-name="Path 8262" d="M325.9,233.785l1.115,1.115-1.115,1.115-1.115-1.115Zm0,0" transform="translate(-307.723 -221.501)" fill="#cc1e0d"/>
  <path id="Path_8263" data-name="Path 8263" d="M145.9,233.785l1.115,1.115-1.115,1.115-1.115-1.115Zm0,0" transform="translate(-137.181 -221.501)" fill="#ff4b00"/>
  <path id="Path_8264" data-name="Path 8264" d="M256,4.729V0a2.365,2.365,0,0,1,0,4.729Zm0,0" transform="translate(-242.548 0)" fill="#ff7816"/>
  <path id="Path_8265" data-name="Path 8265" d="M258.7,176.394l-2.7,2.7V173.7Zm0,0" transform="translate(-242.549 -164.572)" fill="#cc1e0d"/>
</svg>
