<?xml version="1.0" ?>
<!-- Uploaded to: SVG Repo, www.svgrepo.com, Generator: SVG Repo Mixer Tools -->
<svg width="800px" height="800px" viewBox="0 0 50 50" id="Message_And_Communication_Icons" version="1.1" xml:space="preserve" xmlns="http://www.w3.org/2000/svg" xmlns:xlink="http://www.w3.org/1999/xlink">
<g>
<g>
<g>
<polygon points="37,15.9 37,32 12.9,32 12.9,38 16.8,34.5 40.9,34.5 40.9,15.9    " style="fill:#4DE0F9;"/>
</g>
</g>
<g>
<g>
<path d="M10,39.5V14.3h30.5v19.8H16.1L10,39.5z M11.2,15.5v21.3l4.4-3.9h23.7V15.5H11.2z" style="fill:#0D5FC3;"/>
</g>
</g>
<g>
<g>
<path d="M18.8,22.7c-0.1,0-0.1,0-0.2,0c-0.1,0.7-0.6,1.2-1.3,1.3c0,0.1,0,0.1,0,0.2c0,0.8,0.7,1.5,1.5,1.5     s1.5-0.7,1.5-1.5S19.6,22.7,18.8,22.7z" style="fill:#4DE0F9;"/>
</g>
</g>
<g>
<g>
<path d="M25.8,22.7c-0.1,0-0.1,0-0.2,0c-0.1,0.7-0.6,1.2-1.3,1.3c0,0.1,0,0.1,0,0.2c0,0.8,0.7,1.5,1.5,1.5     s1.5-0.7,1.5-1.5S26.6,22.7,25.8,22.7z" style="fill:#4DE0F9;"/>
</g>
</g>
<g>
<g>
<path d="M32.8,22.7c-0.1,0-0.1,0-0.2,0c-0.1,0.7-0.6,1.2-1.3,1.3c0,0.1,0,0.1,0,0.2c0,0.8,0.7,1.5,1.5,1.5     s1.5-0.7,1.5-1.5S33.6,22.7,32.8,22.7z" style="fill:#4DE0F9;"/>
</g>
</g>
<g>
<g>
<path d="M18,25.5c-1.2,0-2.1-0.9-2.1-2.1s0.9-2.1,2.1-2.1s2.1,0.9,2.1,2.1S19.2,25.5,18,25.5z M18,22.5     c-0.5,0-0.9,0.4-0.9,0.9s0.4,0.9,0.9,0.9s0.9-0.4,0.9-0.9S18.5,22.5,18,22.5z" style="fill:#0D5FC3;"/>
</g>
</g>
<g>
<g>
<path d="M25,25.5c-1.2,0-2.1-0.9-2.1-2.1s0.9-2.1,2.1-2.1s2.1,0.9,2.1,2.1S26.2,25.5,25,25.5z M25,22.5     c-0.5,0-0.9,0.4-0.9,0.9s0.4,0.9,0.9,0.9s0.9-0.4,0.9-0.9S25.5,22.5,25,22.5z" style="fill:#0D5FC3;"/>
</g>
</g>
<g>
<g>
<path d="M32,25.5c-1.2,0-2.1-0.9-2.1-2.1s0.9-2.1,2.1-2.1s2.1,0.9,2.1,2.1S33.1,25.5,32,25.5z M32,22.5     c-0.5,0-0.9,0.4-0.9,0.9s0.4,0.9,0.9,0.9s0.9-0.4,0.9-0.9S32.4,22.5,32,22.5z" style="fill:#0D5FC3;"/>
</g>
</g>
</g>
</svg>