<svg width="201" height="200" viewBox="0 0 201 200" fill="none" xmlns="http://www.w3.org/2000/svg">
<path d="M33.0876 122.593C32.654 123.971 31.9064 125.148 30.9868 126.217C30.1476 127.192 29.2588 127.441 28.0812 126.917C26.856 126.371 25.6992 126.327 24.4568 126.863C23.126 127.437 22.4892 127.197 21.5148 126.03C19.748 123.916 18.8512 121.441 18.9328 118.684C18.984 116.956 19.6108 115.416 21.1172 114.405C22.302 113.609 23.598 113.537 24.8864 114.141C25.7264 114.534 26.4996 114.564 27.3628 114.18C28.7324 113.572 30.13 113.522 31.4836 114.289C31.5964 114.353 31.7076 114.422 31.812 114.499C32.7492 115.189 32.7564 115.287 31.9388 116.09C30.19 117.808 30.4324 120.729 32.4424 122.149C32.6524 122.297 32.8656 122.441 33.0876 122.593Z" fill="#E0E0E0"/>
<path d="M29.5234 109.526C29.8434 111.317 27.8598 113.688 26.175 113.361C25.7858 111.284 28.1798 109.303 29.5234 109.526Z" fill="#E0E0E0"/>
<path d="M38.3979 133.852C38.3915 133.826 38.8299 133.897 39.5667 133.605C39.9295 133.458 40.3539 133.194 40.7299 132.76C41.1043 132.33 41.4159 131.708 41.4675 130.964C41.4639 127.959 41.4587 123.618 41.4519 118.256C41.4487 115.572 41.4451 112.632 41.4415 109.477C41.4407 108.688 41.4399 107.886 41.4395 107.071C41.4363 106.665 41.4455 106.249 41.4319 105.842C41.4151 105.438 41.3167 105.035 41.1395 104.665C40.7887 103.924 40.1163 103.325 39.3095 103.073C38.9043 102.939 38.4831 102.925 38.0415 102.934C37.6035 102.935 37.1627 102.935 36.7195 102.935C29.6235 102.937 21.8223 102.94 13.6343 102.942C13.1355 102.945 12.6419 103.07 12.2035 103.3C11.7683 103.536 11.3939 103.878 11.1159 104.283C10.8451 104.694 10.6731 105.166 10.6187 105.652C10.5843 106.136 10.6091 106.649 10.6015 107.144C10.6011 109.138 10.6007 111.103 10.6003 113.034C10.5987 116.896 10.5971 120.62 10.5955 124.169C10.5943 125.944 10.5931 127.674 10.5919 129.354C10.5915 129.775 10.5911 130.192 10.5907 130.606C10.5867 131.016 10.6399 131.415 10.7803 131.79C11.0531 132.539 11.6275 133.154 12.3239 133.484C12.6715 133.65 13.0479 133.747 13.4255 133.773C13.8035 133.794 14.1947 133.78 14.5731 133.785C15.3343 133.786 16.0815 133.786 16.8139 133.787C18.2783 133.789 19.6843 133.791 21.0259 133.793C26.3903 133.804 30.7315 133.813 33.7371 133.82C35.2347 133.826 36.3987 133.832 37.1931 133.836C37.5851 133.839 37.8851 133.842 38.0919 133.844C38.2939 133.846 38.3979 133.852 38.3979 133.852C38.3979 133.852 38.2943 133.858 38.0915 133.861C37.8847 133.863 37.5847 133.866 37.1927 133.869C36.3983 133.873 35.2347 133.878 33.7367 133.885C30.7315 133.892 26.3899 133.901 21.0255 133.912C19.6839 133.914 18.2779 133.916 16.8135 133.918C16.0811 133.918 15.3339 133.919 14.5727 133.92C14.1903 133.916 13.8123 133.932 13.4159 133.91C13.0211 133.884 12.6271 133.784 12.2631 133.61C11.5339 133.267 10.9315 132.624 10.6439 131.84C10.4959 131.45 10.4391 131.022 10.4431 130.606C10.4427 130.192 10.4423 129.774 10.4419 129.354C10.4407 127.673 10.4395 125.943 10.4383 124.169C10.4367 120.62 10.4351 116.895 10.4335 113.034C10.4331 111.103 10.4327 109.138 10.4323 107.143V106.394C10.4307 106.145 10.4303 105.894 10.4503 105.634C10.5071 105.121 10.6887 104.622 10.9751 104.188C11.2683 103.76 11.6635 103.399 12.1231 103.15C12.5859 102.907 13.1083 102.775 13.6339 102.772C21.8223 102.775 29.6231 102.777 36.7191 102.779C37.1627 102.78 37.6031 102.78 38.0411 102.78C38.4723 102.771 38.9351 102.786 39.3551 102.928C40.2023 103.194 40.9067 103.823 41.2735 104.601C41.4587 104.989 41.5615 105.413 41.5783 105.836C41.5915 106.256 41.5815 106.662 41.5839 107.071C41.5831 107.886 41.5823 108.689 41.5819 109.478C41.5783 112.633 41.5747 115.572 41.5715 118.256C41.5587 123.624 41.5663 127.964 41.5331 130.97C41.4751 131.73 41.1519 132.36 40.7675 132.794C40.3811 133.232 39.9479 133.494 39.5791 133.638C39.2103 133.79 38.9039 133.82 38.7039 133.846C38.5015 133.852 38.3979 133.852 38.3979 133.852Z" fill="#E0E0E0"/>
<path d="M22.9749 85.9482C21.0113 85.7394 20.9921 85.7194 21.0009 83.8398C21.0097 81.9358 21.0269 80.0322 21.0285 78.1282C21.0289 77.783 21.0629 77.5498 21.5057 77.5558C24.5385 77.5978 27.5713 77.623 30.6041 77.6558C30.6877 77.6566 30.7709 77.6798 30.9025 77.7002C30.9025 78.9542 30.9005 80.1998 30.9029 81.4458C30.9049 82.3738 30.9189 83.3022 30.9157 84.2302C30.9109 85.6018 30.6297 85.8886 29.2585 85.9566C29.1517 85.9618 29.0457 85.9818 28.8273 86.0086C28.8273 86.799 28.8517 87.5934 28.8205 88.385C28.7901 89.1454 28.2861 89.5606 27.5909 89.4614C27.0021 89.377 26.7173 89.0234 26.7113 88.445C26.7045 87.7746 26.6977 87.103 26.7241 86.433C26.7397 86.033 26.5793 85.8806 26.1937 85.9042C25.9777 85.9174 25.7593 85.915 25.5437 85.8974C25.2013 85.8694 25.0793 86.0266 25.0849 86.3538C25.0957 86.981 25.0949 87.609 25.0849 88.2362C25.0721 89.0174 24.7057 89.4198 24.0233 89.4234C23.3409 89.427 22.9841 89.0294 22.9761 88.2346C22.9689 87.4838 22.9749 86.7322 22.9749 85.9482Z" fill="#E0E0E0"/>
<path d="M29.1779 71.7438C28.9283 72.2062 28.6535 72.7394 28.4103 73.1898C30.4131 74.155 30.9627 75.6618 30.8735 77.0438C27.5991 77.0438 24.3235 77.0438 21.0215 77.0438C21.1627 75.2342 22.0643 74.0018 23.5995 73.1622C23.3331 72.6414 23.0843 72.1546 22.8355 71.6678C22.8823 71.6418 22.9295 71.6158 22.9763 71.5898C23.2559 72.0694 23.5351 72.549 23.8323 73.0594C25.2995 72.4698 26.7379 72.505 28.1855 73.0618C28.4783 72.5702 28.7495 72.1158 29.0203 71.6614C29.0727 71.6882 29.1251 71.7158 29.1779 71.7438Z" fill="#E0E0E0"/>
<path d="M33.532 80.7854C33.532 81.5414 33.5436 82.2974 33.5284 83.053C33.514 83.775 33.1188 84.2006 32.4908 84.2118C31.8576 84.2234 31.4136 83.8106 31.4068 83.1038C31.3924 81.571 31.402 80.0374 31.4376 78.5054C31.4536 77.8174 31.9432 77.3918 32.56 77.4346C33.1688 77.4766 33.5324 77.8962 33.538 78.5814C33.5444 79.3162 33.5396 80.0506 33.5396 80.7854C33.5376 80.7854 33.5348 80.7854 33.532 80.7854Z" fill="#E0E0E0"/>
<path d="M20.5043 80.7035C20.5043 81.4391 20.5299 82.1755 20.4979 82.9095C20.4567 83.8467 19.7055 84.3911 18.9811 83.9951C18.7323 83.8591 18.4359 83.5239 18.4311 83.2743C18.3995 81.6327 18.4107 79.9887 18.4743 78.3483C18.5011 77.6531 18.8719 77.3635 19.4447 77.3795C20.1103 77.3983 20.4871 77.7731 20.5099 78.4995C20.5327 79.2335 20.5151 79.9691 20.5151 80.7039C20.5115 80.7035 20.5079 80.7035 20.5043 80.7035Z" fill="#E0E0E0"/>
<path d="M38.376 96.0312C38.37 96.0056 38.808 96.076 39.5448 95.784C39.9076 95.6364 40.332 95.3732 40.708 94.9384C41.0824 94.5088 41.394 93.8872 41.4456 93.1432C41.442 90.138 41.4368 85.7972 41.43 80.434C41.4268 77.7504 41.4232 74.8108 41.4196 71.656C41.4188 70.8672 41.418 70.0648 41.4172 69.2496C41.414 68.8436 41.4232 68.428 41.4096 68.0204C41.3928 67.6168 41.294 67.2136 41.1172 66.844C40.7664 66.1028 40.094 65.504 39.2872 65.252C38.8816 65.1176 38.4608 65.104 38.0192 65.1132C37.5812 65.1136 37.1404 65.1136 36.6972 65.114C29.6008 65.116 21.8 65.1184 13.612 65.1208C13.1132 65.1236 12.6196 65.2488 12.1812 65.4788C11.746 65.7144 11.3716 66.0568 11.0936 66.462C10.8228 66.8728 10.6508 67.3452 10.5964 67.8308C10.562 68.3144 10.5868 68.828 10.5792 69.3224C10.5788 71.3168 10.5784 73.2816 10.578 75.2128C10.5764 79.0744 10.5748 82.7992 10.5732 86.348C10.572 88.1224 10.5708 89.8524 10.5696 91.5332C10.5692 91.9536 10.5688 92.3708 10.5688 92.7848C10.5648 93.1952 10.618 93.594 10.7584 93.9688C11.0312 94.718 11.6056 95.3332 12.302 95.6628C12.6496 95.8292 13.026 95.926 13.4036 95.952C13.7816 95.9732 14.1728 95.9584 14.5512 95.9636C15.3124 95.9644 16.0596 95.9652 16.792 95.966C18.2568 95.968 19.6624 95.9696 21.004 95.9716C26.368 95.9832 30.7096 95.992 33.7152 95.9984C35.2128 96.0052 36.3768 96.0108 37.1712 96.0144C37.5632 96.018 37.8632 96.0208 38.07 96.0228C38.272 96.0256 38.376 96.0312 38.376 96.0312C38.376 96.0312 38.2724 96.0372 38.07 96.04C37.8632 96.042 37.5632 96.0448 37.1712 96.0484C36.3768 96.052 35.2132 96.0576 33.7152 96.0644C30.7096 96.0708 26.3684 96.08 21.004 96.0912C19.6624 96.0928 18.2564 96.0948 16.792 96.0968C16.0596 96.0976 15.3124 96.0984 14.5512 96.0992C14.1688 96.0948 13.7908 96.1108 13.3944 96.0896C12.9996 96.0636 12.6056 95.9628 12.2412 95.7896C11.512 95.446 10.9096 94.8036 10.622 94.0188C10.474 93.6292 10.4172 93.2016 10.4212 92.7844C10.4208 92.3704 10.4204 91.9532 10.4204 91.5328C10.4192 89.8516 10.418 88.1216 10.4168 86.3476C10.4152 82.7992 10.4136 79.074 10.412 75.2124C10.4116 73.2816 10.4112 71.3164 10.4108 69.322V68.5728C10.4092 68.3236 10.4088 68.0724 10.4288 67.8128C10.4856 67.3 10.6672 66.8004 10.9536 66.3672C11.2468 65.9388 11.6416 65.578 12.1016 65.3292C12.564 65.086 13.0868 64.954 13.6124 64.9512C21.8008 64.9536 29.6016 64.956 36.6976 64.958C37.1412 64.9584 37.582 64.9584 38.0196 64.9588C38.4508 64.9496 38.9136 64.9644 39.3332 65.1064C40.1808 65.3724 40.8848 66.002 41.2516 66.78C41.4368 67.168 41.54 67.5916 41.5564 68.0144C41.5696 68.4344 41.5596 68.8408 41.562 69.25C41.5612 70.0652 41.5604 70.8676 41.5596 71.6564C41.556 74.8116 41.5524 77.7508 41.5492 80.4344C41.5364 85.802 41.544 90.1424 41.5108 93.1484C41.4528 93.908 41.1296 94.5388 40.7452 94.972C40.3588 95.41 39.9256 95.672 39.5568 95.816C39.188 95.9684 38.8816 95.9984 38.6816 96.0244C38.4796 96.032 38.376 96.0312 38.376 96.0312Z" fill="#E0E0E0"/>
<path d="M52.7842 33.9702C52.7842 34.5386 52.3234 34.999 51.7554 34.999C51.187 34.999 50.7266 34.5382 50.7266 33.9702C50.7266 33.4022 51.1874 32.9414 51.7554 32.9414C52.3238 32.941 52.7842 33.4018 52.7842 33.9702Z" fill="#E0E0E0"/>
<path d="M51.7098 33.9698C51.7098 33.9734 51.663 33.977 51.5714 33.9806C51.469 33.9834 51.335 33.9866 51.1654 33.991C50.9826 33.9938 50.7626 33.997 50.505 34.001C50.2438 34.0022 49.9462 34.019 49.6202 34.099C48.9742 34.2474 48.2042 34.675 47.6838 35.4746C47.4282 35.8718 47.2434 36.3558 47.1854 36.8886C47.151 37.4198 47.1802 38.0082 47.1742 38.611C47.1822 43.4726 47.193 50.1674 47.2046 57.5626C47.1926 64.9602 47.1818 71.6558 47.1742 76.5174C47.213 77.7618 46.631 78.8394 45.9062 79.4822C45.1766 80.1438 44.3278 80.407 43.6502 80.457C42.9658 80.4842 42.4438 80.4534 42.0854 80.4542C41.9158 80.4498 41.7818 80.4466 41.6794 80.4438C41.5878 80.4402 41.541 80.4366 41.541 80.433C41.541 80.4294 41.5878 80.4258 41.6794 80.4222C41.7818 80.4194 41.9158 80.4162 42.0854 80.4118C42.4406 80.3978 42.973 80.415 43.643 80.3758C44.3054 80.3146 45.1274 80.0458 45.8274 79.3958C46.523 78.7614 47.0734 77.7238 47.0266 76.517C47.0186 71.6554 47.0078 64.9598 46.9962 57.5622C47.0082 50.1674 47.019 43.4722 47.0266 38.6106C47.0374 38.0014 47.0122 37.4334 47.0534 36.8742C47.119 36.3198 47.3166 35.819 47.5862 35.4102C48.1354 34.5882 48.9366 34.1598 49.6014 34.0198C49.9358 33.9438 50.2446 33.9334 50.505 33.9386C50.7626 33.9426 50.9826 33.9458 51.1654 33.9486C51.335 33.953 51.4694 33.9562 51.5714 33.959C51.663 33.9626 51.7098 33.9662 51.7098 33.9698Z" fill="#E0E0E0"/>
<path d="M42.5752 80.5268C42.5752 81.0952 42.1144 81.556 41.5464 81.556C40.978 81.556 40.5176 81.0952 40.5176 80.5268C40.5176 79.9584 40.9784 79.498 41.5464 79.498C42.1144 79.498 42.5752 79.9588 42.5752 80.5268Z" fill="#E0E0E0"/>
<path d="M42.5752 116.624C42.5752 117.192 42.1144 117.653 41.5464 117.653C40.978 117.653 40.5176 117.192 40.5176 116.624C40.5176 116.055 40.9784 115.595 41.5464 115.595C42.1144 115.595 42.5752 116.056 42.5752 116.624Z" fill="#E0E0E0"/>
<path d="M52.7783 34.7499C52.7783 35.7491 52.3175 36.5584 51.7495 36.5584C51.1811 36.5584 50.7207 35.7484 50.7207 34.7499C50.7207 33.7514 51.1815 32.9414 51.7495 32.9414C52.3179 32.9407 52.7783 33.7507 52.7783 34.7499Z" fill="#E0E0E0"/>
<path d="M51.7079 34.749C51.7079 34.7553 51.6611 34.7616 51.5695 34.768C51.4671 34.7729 51.3331 34.7785 51.1635 34.7862C50.9807 34.7912 50.7607 34.7968 50.5031 34.8038C50.2419 34.8059 49.9443 34.8355 49.6183 34.9761C48.9723 35.237 48.2023 35.9886 47.6819 37.3942C47.4263 38.0924 47.2415 38.9432 47.1835 39.8798C47.1491 40.8136 47.1783 41.8479 47.1723 42.9075C47.1803 51.4535 47.1911 63.222 47.2027 76.2217C47.1907 89.2256 47.1799 100.995 47.1723 109.541C47.2111 111.729 46.6291 113.623 45.9043 114.753C45.1747 115.916 44.3259 116.379 43.6483 116.467C42.9639 116.514 42.4419 116.46 42.0835 116.462C41.9139 116.454 41.7799 116.448 41.6775 116.443C41.5859 116.437 41.5391 116.431 41.5391 116.424C41.5391 116.418 41.5859 116.412 41.6775 116.405C41.7799 116.401 41.9139 116.395 42.0835 116.387C42.4387 116.363 42.9711 116.393 43.6411 116.324C44.3035 116.216 45.1255 115.744 45.8255 114.601C46.5211 113.486 47.0715 111.662 47.0247 109.541C47.0167 100.995 47.0059 89.2249 46.9943 76.221C47.0063 63.222 47.0171 51.4528 47.0247 42.9068C47.0355 41.8359 47.0103 40.8375 47.0515 39.8545C47.1171 38.8799 47.3147 37.9996 47.5843 37.281C48.1335 35.836 48.9347 35.083 49.5995 34.8369C49.9339 34.7033 50.2427 34.685 50.5031 34.6941C50.7607 34.7012 50.9807 34.7068 51.1635 34.7117C51.3331 34.7194 51.4675 34.7251 51.5695 34.73C51.6611 34.7363 51.7079 34.7426 51.7079 34.749Z" fill="#E0E0E0"/>
<path d="M74.4199 177.123V188.331H90.8107H108.889V177.123H74.4199Z" fill="#F5F5F5"/>
<path d="M72.9727 173.982V177.116H110.093V173.982H90.8099H72.9727Z" fill="#E0E0E0"/>
<path d="M91.5396 188.33H108.894V177.122H110.1V173.988H90.8164V176.832L91.5396 188.33Z" fill="#E0E0E0"/>
<path d="M86.2127 178.934H79.2227V180.621H86.2127V178.934Z" fill="#E0E0E0"/>
<path d="M87.3237 182.713H78.3477V186.276H87.3237V182.713Z" fill="white"/>
<path d="M186.728 118.091H151.248V185.159H186.728V118.091Z" fill="#E0E0E0"/>
<path d="M176.199 118.09H140.719V185.158H176.199V118.09Z" fill="#F5F5F5"/>
<path d="M173.595 131.894H143.141V121.263H173.595V131.894ZM143.515 131.52H173.221V121.637H143.515V131.52Z" fill="#E0E0E0"/>
<path d="M162.367 123.569H154.768C153.675 123.569 152.789 122.683 152.789 121.589V121.45H164.347V121.589C164.346 122.683 163.46 123.569 162.367 123.569Z" fill="#EBEBEB"/>
<path d="M173.595 145.403H143.141V134.771H173.595V145.403ZM143.515 145.029H173.221V135.146H143.515V145.029Z" fill="#E0E0E0"/>
<path d="M162.365 137.078H154.766C153.673 137.078 152.787 136.192 152.787 135.099V134.96H164.345V135.099C164.344 136.192 163.458 137.078 162.365 137.078Z" fill="#EBEBEB"/>
<path d="M173.595 158.908H143.141V148.276H173.595V158.908ZM143.515 158.534H173.221V148.651H143.515V158.534Z" fill="#E0E0E0"/>
<path d="M162.367 150.58H154.768C153.675 150.58 152.789 149.694 152.789 148.601V148.462H164.347V148.601C164.346 149.694 163.46 150.58 162.367 150.58Z" fill="#EBEBEB"/>
<path d="M173.595 172.414H143.141V161.783H173.595V172.414ZM143.515 172.04H173.221V162.158H143.515V172.04Z" fill="#E0E0E0"/>
<path d="M162.367 164.088H154.768C153.675 164.088 152.789 163.202 152.789 162.109V161.97H164.347V162.109C164.346 163.202 163.46 164.088 162.367 164.088Z" fill="#EBEBEB"/>
<path d="M177.68 115.579H139.143V118.92H177.68V115.579Z" fill="#EBEBEB"/>
<path d="M189.265 115.579H177.676V118.92H189.265V115.579Z" fill="#E0E0E0"/>
<path d="M142.583 185.161H140.719V188.587H142.583V185.161Z" fill="#E0E0E0"/>
<path d="M154.105 185.161H152.24V188.587H154.105V185.161Z" fill="#E0E0E0"/>
<path d="M175.152 185.159H173.287V188.585H175.152V185.159Z" fill="#E0E0E0"/>
<path d="M185.673 185.161H183.809V188.587H185.673V185.161Z" fill="#E0E0E0"/>
<path d="M173.571 106.663L177.163 115.851L174.93 115.84L173.141 110.194L173.571 106.663Z" fill="#E0E0E0"/>
<path d="M161.301 98.166L160.066 115.77L172.812 116.036L174.246 98.166H161.301Z" fill="#EBEBEB"/>
<path d="M162.584 99.5901L161.557 114.243L171.031 114.687L172.355 99.5029L162.584 99.5901Z" fill="#FAFAFA"/>
<path d="M164.663 101.659L163.895 111.959H169.121L170.043 101.659H164.663Z" fill="#E0E0E0"/>
<path d="M187.421 16.1016V54.0292H132.947L130.984 16.3668L187.421 16.1016Z" fill="#E0E0E0"/>
<path d="M130.986 16.3649V53.9473H185.461V16.3649H130.986Z" fill="white"/>
<path d="M185.724 54.2073H130.732V16.1082H185.724V54.2073ZM131.249 53.6906H185.207V16.625H131.249V53.6906Z" fill="#E0E0E0"/>
<path d="M179.557 21.0303H136.883V49.2743H179.557V21.0303Z" fill="white"/>
<path d="M179.549 21.0322C179.549 21.0322 179.476 21.037 179.339 21.0394C179.195 21.041 178.994 21.0434 178.732 21.0466C178.191 21.0502 177.407 21.055 176.389 21.0614C174.339 21.069 171.359 21.0806 167.595 21.0946C160.069 21.1094 149.417 21.1306 136.875 21.1554L136.999 21.0318C137.002 29.661 137.006 39.2226 137.01 49.2722V49.2754L136.875 49.141C152.973 49.1514 167.815 49.1606 179.55 49.1682L179.443 49.2754C179.466 40.6802 179.485 33.633 179.499 28.7254C179.511 26.2726 179.52 24.3562 179.526 23.043C179.531 22.3938 179.535 21.8958 179.538 21.5498C179.542 21.2118 179.549 21.0322 179.549 21.0322C179.549 21.0322 179.557 21.1966 179.561 21.5278C179.564 21.869 179.568 22.3606 179.573 23.001C179.579 24.309 179.589 26.217 179.6 28.6594C179.614 33.5826 179.633 40.653 179.657 49.2758L179.657 49.383H179.549C167.815 49.3906 152.973 49.3998 136.875 49.4102H136.74V49.2754V49.2722C136.744 39.2226 136.748 29.661 136.751 21.0318V20.9082L136.875 20.9086C149.45 20.9334 160.13 20.9546 167.675 20.9694C171.427 20.9834 174.398 20.995 176.441 21.0026C177.449 21.009 178.225 21.0142 178.76 21.0174C179.016 21.0206 179.212 21.023 179.353 21.0246C179.486 21.0274 179.549 21.0322 179.549 21.0322Z" fill="#E0E0E0"/>
<path d="M130.988 16.2593C131.01 16.2301 131.367 16.4637 131.924 16.8657C132.481 17.2681 133.24 17.8389 134.06 18.4945C134.879 19.1505 135.6 19.7709 136.107 20.2357C136.615 20.7005 136.911 21.0065 136.887 21.0341C136.836 21.0913 135.527 20.0113 133.891 18.7049C132.254 17.4001 130.94 16.3205 130.988 16.2593Z" fill="#E0E0E0"/>
<path d="M185.47 16.3618C185.516 16.4202 184.232 17.5126 182.603 18.8018C180.974 20.0914 179.616 21.0894 179.57 21.031C179.524 20.9726 180.807 19.8806 182.436 18.5906C184.065 17.3014 185.424 16.3034 185.47 16.3618Z" fill="#E0E0E0"/>
<path d="M185.411 53.9521C183.387 52.3113 181.362 50.6701 179.338 49.0293L185.411 53.9521Z" fill="white"/>
<path d="M179.331 49.0276C179.378 48.97 180.776 50.0252 182.453 51.3844C184.13 52.744 185.452 53.8928 185.405 53.9504C185.358 54.008 183.961 52.9532 182.284 51.5936C180.606 50.234 179.284 49.0852 179.331 49.0276Z" fill="#E0E0E0"/>
<path d="M130.988 53.9441C130.942 53.8857 132.212 52.8045 133.824 51.5293C135.437 50.2537 136.781 49.2673 136.828 49.3257C136.874 49.3841 135.604 50.4649 133.991 51.7405C132.378 53.0157 131.034 54.0025 130.988 53.9441Z" fill="#E0E0E0"/>
<path d="M145.557 29.8343V39.2915H172.408V29.8343H145.557Z" fill="#E0E0E0"/>
<path d="M186.759 188.587C186.759 188.645 147.961 188.691 100.111 188.691C52.2455 188.691 13.4551 188.645 13.4551 188.587C13.4551 188.53 52.2455 188.483 100.111 188.483C147.961 188.483 186.759 188.53 186.759 188.587Z" fill="#263238"/>
<path d="M111.429 166.501L62.5125 166.472C56.6293 166.469 51.8621 161.698 51.8633 155.815L51.8873 33.18C51.8885 27.2936 56.6625 22.5232 62.5489 22.5264L111.466 22.5552C117.349 22.5588 122.116 27.3296 122.115 33.2128L122.091 155.848C122.09 161.734 117.316 166.505 111.429 166.501Z" fill="#263238"/>
<path d="M111.309 26.9116L101.825 26.906C100.554 26.9056 99.522 27.9828 99.522 29.312L99.5212 31.0324C99.5212 32.362 98.4896 33.4396 97.218 33.4384L78.7316 33.4276C77.46 33.4268 76.4288 32.3484 76.4292 31.0188L76.4296 29.2984C76.4296 27.9688 75.3988 26.8904 74.1268 26.8896L70.7912 26.8876L62.4904 26.8828C58.368 26.8804 55.0244 30.2212 55.0236 34.344L55 154.044C54.9992 158.165 58.3376 161.506 62.458 161.509L111.277 161.537C115.399 161.54 118.742 158.199 118.744 154.076L118.767 34.3756C118.768 30.2552 115.43 26.9144 111.309 26.9116Z" fill="white"/>
<path d="M118.561 46.8885C118.561 46.9217 104.33 46.9489 86.7782 46.9489C69.2206 46.9489 54.9922 46.9217 54.9922 46.8885C54.9922 46.8553 69.2206 46.8281 86.7782 46.8281C104.33 46.8281 118.561 46.8549 118.561 46.8885Z" fill="#EBEBEB"/>
<path d="M63.8295 41.204C63.7835 41.204 63.7375 41.188 63.7003 41.1556L61.8403 39.5244C61.7971 39.4864 61.7727 39.432 61.7735 39.3744C61.7743 39.3172 61.7999 39.2632 61.8439 39.2264L63.7039 37.68C63.7875 37.6108 63.9107 37.6224 63.9795 37.7052C64.0487 37.7884 64.0371 37.912 63.9543 37.9808L62.2707 39.3804L63.9583 40.8604C64.0395 40.9316 64.0479 41.0556 63.9767 41.1368C63.9379 41.1816 63.8839 41.204 63.8295 41.204Z" fill="#263238"/>
<path d="M101.104 39.8793C101.104 39.9357 95.7333 39.9813 89.1093 39.9813C82.4833 39.9813 77.1133 39.9357 77.1133 39.8793C77.1133 39.8229 82.4829 39.7773 89.1093 39.7773C95.7333 39.7773 101.104 39.8229 101.104 39.8793Z" fill="#263238"/>
<path d="M77.1895 100.638L77.331 100.359C77.575 100.599 78.0099 100.775 78.4591 100.775C79.0987 100.775 79.3771 100.506 79.3771 100.169C79.3771 99.2315 77.2727 99.8079 77.2727 98.5431C77.2727 98.0403 77.6635 97.6055 78.5327 97.6055C78.9183 97.6055 79.3186 97.7179 79.5922 97.9083L79.4703 98.1963C79.1775 98.0059 78.8355 97.9131 78.5327 97.9131C77.9075 97.9131 77.6294 98.1915 77.6294 98.5331C77.6294 99.4707 79.7339 98.9043 79.7339 100.149C79.7339 100.652 79.3335 101.082 78.4595 101.082C77.9463 101.083 77.4435 100.901 77.1895 100.638Z" fill="#263238"/>
<path d="M81.6162 99.8712V101.053H81.2598V99.8712L79.8926 97.6348H80.2782L81.4502 99.5536L82.6222 97.6348H82.9834L81.6162 99.8712Z" fill="#263238"/>
<path d="M83.1426 100.638L83.2842 100.359C83.5282 100.599 83.963 100.775 84.4122 100.775C85.0518 100.775 85.3302 100.506 85.3302 100.169C85.3302 99.2315 83.2258 99.8079 83.2258 98.5431C83.2258 98.0403 83.6166 97.6055 84.4854 97.6055C84.871 97.6055 85.2714 97.7179 85.545 97.9083L85.423 98.1963C85.1302 98.0059 84.7882 97.9131 84.4854 97.9131C83.8602 97.9131 83.5822 98.1915 83.5822 98.5331C83.5822 99.4707 85.6866 98.9043 85.6866 100.149C85.6866 100.652 85.2862 101.082 84.4122 101.082C83.8994 101.083 83.3966 100.901 83.1426 100.638Z" fill="#263238"/>
<path d="M87.0879 97.9472H85.8867V97.6348H88.6503V97.9472H87.4491V101.053H87.0879V97.9472Z" fill="#263238"/>
<path d="M91.6453 100.74V101.053H89.2285V97.6348H91.5721V97.9472H89.5897V99.1628H91.3573V99.4704H89.5897V100.74L91.6453 100.74Z" fill="#263238"/>
<path d="M96.0422 97.6348V101.053H95.6954V98.3184L94.3526 100.618H94.1818L92.839 98.3332V101.053H92.4922V97.6352H92.7902L94.2746 100.17L95.7442 97.6352L96.0422 97.6348Z" fill="#263238"/>
<path d="M74.3555 105.446V103.438H75.1851V105.415C75.1851 106.096 75.4823 106.378 75.9839 106.378C76.4911 106.378 76.7831 106.096 76.7831 105.415V103.438H77.6023V105.446C77.6023 106.501 76.9979 107.085 75.9787 107.085C74.9595 107.084 74.3555 106.501 74.3555 105.446Z" fill="#263238"/>
<path d="M81.5244 104.739C81.5244 105.538 80.9252 106.035 79.9676 106.035H79.2456V107.023H78.416V103.438H79.9676C80.9252 103.438 81.5244 103.935 81.5244 104.739ZM80.6844 104.739C80.6844 104.345 80.4284 104.114 79.9212 104.114H79.2456V105.358H79.9212C80.4284 105.359 80.6844 105.129 80.6844 104.739Z" fill="#263238"/>
<path d="M84.5851 105.177H85.3427V106.631C84.9483 106.928 84.4055 107.087 83.8935 107.087C82.7671 107.087 81.9375 106.313 81.9375 105.233C81.9375 104.153 82.7671 103.379 83.9091 103.379C84.5391 103.379 85.0611 103.594 85.4095 103.999L84.8771 104.49C84.6159 104.214 84.3139 104.085 83.9503 104.085C83.2539 104.085 82.7775 104.551 82.7775 105.233C82.7775 105.903 83.2539 106.379 83.9399 106.379C84.1655 106.379 84.3751 106.338 84.5851 106.226V105.177Z" fill="#263238"/>
<path d="M88.3992 107.023L87.7076 106.025H87.6668H86.9448V107.023H86.1152V103.438H87.6668C88.6244 103.438 89.2236 103.935 89.2236 104.739C89.2236 105.277 88.952 105.671 88.486 105.871L89.29 107.023H88.3992ZM87.6208 104.115H86.9452V105.364H87.6208C88.128 105.364 88.384 105.129 88.384 104.739C88.3836 104.345 88.1276 104.115 87.6208 104.115Z" fill="#263238"/>
<path d="M92.2441 106.255H90.5797L90.2621 107.023H89.4121L91.0097 103.438H91.8289L93.4317 107.023H92.5613L92.2441 106.255ZM91.9829 105.625L91.4145 104.253L90.8461 105.625H91.9829Z" fill="#263238"/>
<path d="M93.8027 103.438H95.4311C96.6039 103.438 97.4075 104.146 97.4075 105.231C97.4075 106.317 96.6035 107.023 95.4311 107.023H93.8027V103.438ZM95.3903 106.342C96.1019 106.342 96.5679 105.917 96.5679 105.231C96.5679 104.545 96.1019 104.12 95.3903 104.12H94.6323V106.342H95.3903V106.342Z" fill="#263238"/>
<path d="M100.809 106.358V107.023H98.0332V103.438H100.742V104.104H98.8576V104.882H100.522V105.528H98.8576V106.357H100.809V106.358Z" fill="#263238"/>
<path d="M76.6406 132.148C76.6406 131.42 77.1946 130.884 77.9442 130.884C78.3066 130.884 78.6334 131.005 78.8534 131.246L78.6862 131.413C78.4838 131.207 78.235 131.118 77.951 131.118C77.3506 131.118 76.8994 131.559 76.8994 132.148C76.8994 132.738 77.3506 133.178 77.951 133.178C78.235 133.178 78.4838 133.089 78.6862 132.88L78.8534 133.047C78.633 133.288 78.3062 133.413 77.9402 133.413C77.1946 133.413 76.6406 132.876 76.6406 132.148Z" fill="#263238"/>
<path d="M81.4901 130.903V133.39H81.2309V132.243H79.6749V133.39H79.4121V130.903H79.6749V132.012H81.2309V130.903H81.4901Z" fill="#263238"/>
<path d="M84.0572 133.163V133.39H82.2988V130.903H84.004V131.131H82.562V132.015H83.848V132.239H82.562V133.163H84.0572Z" fill="#263238"/>
<path d="M84.4434 132.148C84.4434 131.42 84.9974 130.884 85.747 130.884C86.1094 130.884 86.4362 131.005 86.6562 131.246L86.4894 131.413C86.287 131.207 86.0382 131.118 85.7542 131.118C85.1538 131.118 84.7026 131.559 84.7026 132.148C84.7026 132.738 85.1538 133.178 85.7542 133.178C86.0382 133.178 86.287 133.089 86.4894 132.88L86.6562 133.047C86.4358 133.288 86.109 133.413 85.743 133.413C84.9974 133.413 84.4434 132.876 84.4434 132.148Z" fill="#263238"/>
<path d="M87.9856 132.221L87.4776 132.737V133.39H87.2148V130.903H87.4776V132.406L88.9376 130.903H89.2396L88.1632 132.029L89.314 133.39H89.0016L87.9856 132.221Z" fill="#263238"/>
<path d="M89.7422 130.903H90.005V133.39H89.7422V130.903Z" fill="#263238"/>
<path d="M92.8889 130.903V133.39H92.6721L91.0733 131.373V133.39H90.8105V130.903H91.0273L92.6293 132.921V130.903H92.8889Z" fill="#263238"/>
<path d="M95.4521 132.148H95.7041V133.097C95.4697 133.306 95.1357 133.413 94.7913 133.413C94.0345 133.413 93.4805 132.876 93.4805 132.148C93.4805 131.42 94.0345 130.884 94.7949 130.884C95.1713 130.884 95.4981 131.005 95.7185 131.242L95.5549 131.409C95.3453 131.203 95.0965 131.118 94.8053 131.118C94.1905 131.118 93.7397 131.555 93.7397 132.148C93.7397 132.738 94.1909 133.178 94.8017 133.178C95.0397 133.178 95.2601 133.125 95.4521 132.987V132.148Z" fill="#263238"/>
<path d="M96.2617 133.213C96.2617 133.103 96.3469 133.021 96.4501 133.021C96.5529 133.021 96.6421 133.103 96.6421 133.213C96.6421 133.323 96.5533 133.408 96.4501 133.408C96.3469 133.408 96.2617 133.323 96.2617 133.213Z" fill="#263238"/>
<path d="M97.0176 133.213C97.0176 133.103 97.1028 133.021 97.206 133.021C97.3088 133.021 97.3976 133.103 97.3976 133.213C97.3976 133.323 97.3088 133.408 97.206 133.408C97.1028 133.408 97.0176 133.323 97.0176 133.213Z" fill="#263238"/>
<path d="M97.7715 133.213C97.7715 133.103 97.8567 133.021 97.9599 133.021C98.0627 133.021 98.1515 133.103 98.1515 133.213C98.1515 133.323 98.0627 133.408 97.9599 133.408C97.8567 133.408 97.7715 133.323 97.7715 133.213Z" fill="#263238"/>
<path d="M81.5976 67.3709C82.388 66.8933 83.2292 66.5313 84.0968 66.2845L84.6116 63.8105L88.7916 63.7373L89.3932 66.1913C90.2692 66.4073 91.1228 66.7393 91.9296 67.1889L94.0424 65.8041L97.05 68.7081L95.7408 70.8677C96.2184 71.6581 96.5808 72.5001 96.8268 73.3677L99.3004 73.8825L99.374 78.0625L96.9196 78.6641C96.7036 79.5397 96.3716 80.3933 95.922 81.2001L97.3064 83.3129L94.4028 86.3205L92.2432 85.0109C91.4528 85.4885 90.6112 85.8505 89.7432 86.0969L89.2284 88.5709L85.0484 88.6441L84.4468 86.1897C83.5708 85.9737 82.7176 85.6413 81.9108 85.1921L79.7984 86.5769L76.7908 83.6729L78.1004 81.5133C77.6228 80.7229 77.2604 79.8813 77.014 79.0133L74.54 78.4985L74.4668 74.3185L76.9212 73.7165C77.1372 72.8409 77.4696 71.9873 77.9188 71.1805L76.534 69.0677L79.4376 66.0601L81.5976 67.3709ZM83.8256 72.9393C82.1052 74.7213 82.1552 77.5605 83.9372 79.2809C85.7192 81.0013 88.5584 80.9513 90.2784 79.1693C91.9988 77.3873 91.9488 74.5481 90.1668 72.8277C88.3852 71.1073 85.546 71.1573 83.8256 72.9393Z" fill="#11489B"/>
<path d="M101.376 55.8689C101.781 55.8005 102.189 55.7881 102.588 55.8277L103.206 54.8877L104.948 55.5409L104.796 56.6553C105.123 56.8877 105.422 57.1649 105.683 57.4829L106.784 57.2549L107.554 58.9485L106.658 59.6281C106.727 60.0337 106.739 60.4409 106.699 60.8405L107.639 61.4581L106.986 63.2001L105.872 63.0481C105.64 63.3753 105.362 63.6745 105.044 63.9349L105.272 65.0357L103.578 65.8061L102.898 64.9109C102.493 64.9793 102.086 64.9917 101.686 64.9517L101.068 65.8917L99.3264 65.2385L99.4788 64.1241C99.1516 63.8917 98.8524 63.6145 98.592 63.2965L97.4912 63.5245L96.7208 61.8309L97.616 61.1509C97.5476 60.7457 97.5352 60.3381 97.5748 59.9385L96.6348 59.3209L97.2876 57.5789L98.402 57.7309C98.6344 57.4037 98.9116 57.1049 99.2296 56.8441L99.002 55.7433L100.696 54.9729L101.376 55.8689ZM101.388 58.5381C100.384 58.9945 99.9408 60.1777 100.398 61.1813C100.854 62.1849 102.037 62.6281 103.041 62.1717C104.044 61.7153 104.488 60.5321 104.031 59.5285C103.575 58.5253 102.391 58.0817 101.388 58.5381Z" fill="#11489B"/>
<path d="M70.4124 60.8931C70.6668 60.6431 70.9508 60.4323 71.2552 60.2623L71.2284 59.2863L72.7932 58.8867L73.238 59.7555C73.5864 59.7587 73.9368 59.8075 74.2804 59.9047L74.9512 59.1959L76.3404 60.0195L76.0404 60.9479C76.2904 61.2027 76.5016 61.4867 76.6712 61.7911L77.6468 61.7643L78.0468 63.3291L77.178 63.7739C77.1748 64.1223 77.126 64.4727 77.0288 64.8159L77.7372 65.4867L76.9136 66.8759L75.9852 66.5759C75.7308 66.8259 75.4464 67.0367 75.1424 67.2067L75.1692 68.1827L73.6044 68.5823L73.1596 67.7131C72.8112 67.7099 72.4608 67.6611 72.1176 67.5639L71.4468 68.2727L70.0576 67.4491L70.3576 66.5207C70.1076 66.2663 69.8964 65.9819 69.7268 65.6779L68.7512 65.7047L68.3516 64.1399L69.2208 63.6951C69.224 63.3467 69.2728 62.9963 69.37 62.6531L68.6616 61.9823L69.4852 60.5931L70.4124 60.8931ZM71.746 62.7879C71.258 63.6111 71.5296 64.6739 72.3528 65.1619C73.1756 65.6499 74.2384 65.3783 74.7264 64.5551C75.2144 63.7323 74.9428 62.6691 74.1196 62.1811C73.2968 61.6935 72.234 61.9651 71.746 62.7879Z" fill="#11489B"/>
<path d="M106.864 127.38H67.9326C65.453 127.38 63.4434 125.37 63.4434 122.891V122.354C63.4434 119.874 65.4534 117.864 67.9326 117.864H106.864C109.343 117.864 111.353 119.874 111.353 122.354V122.891C111.353 125.37 109.343 127.38 106.864 127.38Z" fill="#F5F5F5"/>
<path d="M85.5834 127.38H67.9306C65.451 127.38 63.4414 125.37 63.4414 122.891V122.354C63.4414 119.874 65.4514 117.864 67.9306 117.864H85.5834C88.063 117.864 90.073 119.874 90.073 122.354V122.891C90.073 125.37 88.063 127.38 85.5834 127.38Z" fill="#11489B"/>
<path d="M101.529 123.312C101.529 123.804 101.187 124.184 100.497 124.184C100.067 124.184 99.6673 124.024 99.4609 123.788L99.5701 123.624C99.7469 123.83 100.097 123.986 100.493 123.986C101.036 123.986 101.314 123.712 101.314 123.32C101.314 122.899 101.057 122.642 100.257 122.642H99.6589L99.8149 121.215H101.378V121.408H99.9961L99.8825 122.449H100.304C101.201 122.448 101.529 122.789 101.529 123.312Z" fill="#11489B"/>
<path d="M103.861 123.312C103.861 123.804 103.52 124.184 102.829 124.184C102.4 124.184 101.999 124.024 101.793 123.788L101.902 123.624C102.079 123.83 102.429 123.986 102.825 123.986C103.368 123.986 103.646 123.712 103.646 123.32C103.646 122.899 103.389 122.642 102.589 122.642H101.991L102.147 121.215H103.709V121.408H102.328L102.214 122.449H102.635C103.533 122.448 103.861 122.789 103.861 123.312Z" fill="#11489B"/>
<path d="M104.18 121.993C104.18 121.513 104.445 121.197 104.828 121.197C105.212 121.197 105.481 121.513 105.481 121.993C105.481 122.473 105.212 122.789 104.828 122.789C104.445 122.789 104.18 122.473 104.18 121.993ZM105.321 121.993C105.321 121.584 105.123 121.34 104.828 121.34C104.538 121.34 104.34 121.589 104.34 121.993C104.34 122.398 104.538 122.646 104.828 122.646C105.123 122.646 105.321 122.401 105.321 121.993ZM106.626 121.214H106.808L104.794 124.162H104.614L106.626 121.214ZM105.94 123.383C105.94 122.903 106.21 122.587 106.593 122.587C106.976 122.587 107.242 122.903 107.242 123.383C107.242 123.863 106.976 124.179 106.593 124.179C106.21 124.179 105.94 123.863 105.94 123.383ZM107.081 123.383C107.081 122.978 106.884 122.73 106.593 122.73C106.298 122.73 106.1 122.974 106.1 123.383C106.1 123.791 106.298 124.036 106.593 124.036C106.884 124.036 107.081 123.787 107.081 123.383Z" fill="#11489B"/>
<g opacity="0.2">
<path d="M75.0238 117.86L71.4414 127.262H74.0734L77.4114 117.86H75.0238Z" fill="white"/>
</g>
<g opacity="0.2">
<path d="M81.4867 117.859L77.9043 127.261H80.5363L83.8743 117.859H81.4867Z" fill="white"/>
</g>
<g opacity="0.2">
<path d="M87.8055 118.564L84.4707 127.317H86.0379C86.4707 127.26 87.2451 126.915 87.2451 126.915L89.5431 120.442C89.1139 119.654 88.5307 119.032 87.8055 118.564Z" fill="white"/>
</g>
<g opacity="0.2">
<path d="M68.751 117.859L65.457 126.505C66.1242 126.949 66.9046 127.203 67.8006 127.261L71.1386 117.859H68.751Z" fill="white"/>
</g>
<path d="M106.86 127.373C106.857 127.351 107.24 127.385 107.932 127.217C108.606 127.047 109.638 126.605 110.443 125.511C110.844 124.973 111.155 124.27 111.258 123.459C111.305 123.057 111.304 122.623 111.286 122.18C111.278 121.738 111.183 121.282 111.021 120.837C110.705 119.943 110.044 119.093 109.115 118.547C108.652 118.273 108.126 118.077 107.565 117.989C107.008 117.898 106.412 117.938 105.806 117.931C96.1068 117.939 82.718 117.949 67.9304 117.961C67.478 117.969 67.03 118.036 66.6004 118.167C66.1728 118.304 65.7708 118.51 65.4044 118.763C64.6788 119.279 64.1068 120.011 63.8132 120.84C63.284 122.489 63.4568 124.477 64.6172 125.756C65.1744 126.401 65.918 126.871 66.722 127.099C67.5248 127.344 68.38 127.256 69.22 127.273C70.8976 127.274 72.5396 127.275 74.142 127.276C80.55 127.285 86.3208 127.292 91.17 127.299C96.012 127.313 99.9324 127.324 102.65 127.332C104 127.34 105.05 127.347 105.771 127.351C106.123 127.356 106.393 127.359 106.582 127.362C106.766 127.365 106.86 127.373 106.86 127.373C106.86 127.373 106.766 127.38 106.583 127.383C106.394 127.386 106.124 127.389 105.772 127.394C105.051 127.398 104.001 127.405 102.65 127.413C99.9332 127.421 96.0128 127.433 91.1708 127.447C86.322 127.453 80.5508 127.461 74.1428 127.469C72.5404 127.47 70.8984 127.471 69.2208 127.473C68.8016 127.473 68.38 127.473 67.956 127.473C67.5252 127.46 67.0864 127.424 66.6672 127.295C65.8256 127.056 65.0472 126.565 64.4636 125.891C63.8768 125.22 63.4888 124.365 63.3764 123.465C63.3272 123.008 63.3256 122.568 63.3472 122.113C63.364 121.657 63.4572 121.201 63.6188 120.77C63.9264 119.901 64.5244 119.134 65.2844 118.594C65.668 118.329 66.0892 118.113 66.5376 117.969C66.988 117.831 67.4576 117.761 67.9308 117.753C82.7184 117.765 96.1068 117.776 105.806 117.783C106.41 117.793 107.005 117.755 107.588 117.851C108.165 117.944 108.708 118.149 109.182 118.433C110.137 119 110.81 119.878 111.13 120.797C111.702 122.661 111.365 124.482 110.508 125.56C109.678 126.666 108.625 127.1 107.942 127.258C107.769 127.308 107.611 127.321 107.476 127.342C107.342 127.365 107.228 127.368 107.136 127.37C106.953 127.375 106.86 127.373 106.86 127.373Z" fill="#263238"/>
<path d="M69.758 152.153V155.351C69.758 155.628 69.452 155.796 69.218 155.648L66.6984 154.049C66.4808 153.911 66.4808 153.593 66.6984 153.455L69.218 151.856C69.452 151.708 69.758 151.876 69.758 152.153Z" fill="#E0E0E0"/>
<path d="M90.4625 153.723C90.4625 154.943 89.4737 155.932 88.2537 155.932C87.0337 155.932 86.0449 154.943 86.0449 153.723C86.0449 152.503 87.0341 151.515 88.2537 151.515C89.4737 151.514 90.4625 152.503 90.4625 153.723Z" fill="#E0E0E0"/>
<path d="M109.648 155.879H107.068C106.655 155.879 106.32 155.544 106.32 155.131V152.551C106.32 152.138 106.655 151.804 107.068 151.804H109.648C110.062 151.804 110.396 152.139 110.396 152.551V155.131C110.396 155.544 110.061 155.879 109.648 155.879Z" fill="#E0E0E0"/>
<path d="M112.605 38.6497C112.217 38.6497 111.902 38.3353 111.902 37.9469C111.902 37.5585 112.217 37.2441 112.605 37.2441C112.993 37.2441 113.308 37.5585 113.308 37.9469C113.308 38.3353 112.993 38.6497 112.605 38.6497Z" fill="#263238"/>
<path d="M112.605 40.6849C112.217 40.6849 111.902 40.3701 111.902 39.9821C111.902 39.5941 112.217 39.2793 112.605 39.2793C112.993 39.2793 113.308 39.5941 113.308 39.9821C113.308 40.3705 112.993 40.6849 112.605 40.6849Z" fill="#263238"/>
<path d="M112.605 42.7171C112.217 42.7171 111.902 42.4023 111.902 42.0143C111.902 41.6263 112.217 41.3115 112.605 41.3115C112.993 41.3115 113.308 41.6263 113.308 42.0143C113.308 42.4023 112.993 42.7171 112.605 42.7171Z" fill="#263238"/>
<path d="M34.9376 160.28C34.7176 159.318 34.248 158.178 33.2652 158.079C32.6824 158.021 32.1216 158.395 31.8032 158.887C31.4848 159.378 31.3172 159.966 31.2844 160.551C31.0676 164.415 31.3588 168.881 32.3496 173.01L35.9488 173.318C36.284 168.853 35.9344 164.645 34.9376 160.28Z" fill="#455A64"/>
<path d="M33.2602 158.078C33.2746 158.092 33.099 158.227 32.9118 158.561C32.7262 158.897 32.6034 159.449 32.6074 160.139C32.6186 160.829 32.6266 161.659 32.6642 162.572C32.7042 163.487 32.7826 164.491 32.8966 165.542C33.127 167.645 33.427 169.539 33.6026 170.916C33.6922 171.605 33.7566 172.163 33.7942 172.549C33.809 172.727 33.8214 172.874 33.8318 172.995C33.8386 173.097 33.8394 173.151 33.8338 173.152C33.8282 173.153 33.8162 173.1 33.7986 172.999C33.7802 172.879 33.7574 172.733 33.7302 172.557C33.669 172.148 33.5866 171.599 33.4866 170.933C33.2814 169.561 32.9634 167.669 32.7322 165.559C32.6182 164.505 32.5438 163.497 32.5122 162.578C32.4938 162.119 32.4926 161.681 32.4906 161.273C32.4922 160.867 32.4802 160.486 32.4906 160.137C32.501 159.438 32.6458 158.867 32.8558 158.53C33.0674 158.194 33.2602 158.078 33.2602 158.078Z" fill="#263238"/>
<path d="M35.2013 159.05C35.2253 159.089 35.0265 159.254 34.7581 159.419C34.4893 159.584 34.2525 159.686 34.2285 159.647C34.2045 159.608 34.4029 159.443 34.6717 159.278C34.9401 159.114 35.1773 159.011 35.2013 159.05Z" fill="#263238"/>
<path d="M35.959 161.922C35.9594 161.967 35.6678 162.003 35.3166 161.933C34.965 161.865 34.7082 161.722 34.7254 161.682C34.7426 161.638 35.0138 161.707 35.3482 161.771C35.6822 161.837 35.9594 161.876 35.959 161.922Z" fill="#263238"/>
<path d="M31.5362 162.179C31.5422 162.223 31.269 162.296 30.9242 162.289C30.5794 162.283 30.309 162.2 30.3166 162.156C30.3242 162.11 30.5958 162.118 30.9274 162.123C31.2586 162.13 31.5306 162.133 31.5362 162.179Z" fill="#263238"/>
<path d="M32.1287 159.573C32.1219 159.616 31.8531 159.601 31.5711 159.44C31.2883 159.281 31.1367 159.058 31.1707 159.03C31.2051 158.997 31.3955 159.152 31.6527 159.296C31.9087 159.443 32.1387 159.527 32.1287 159.573Z" fill="#263238"/>
<path d="M36.103 164.966C36.0754 165.002 35.8118 164.849 35.5146 164.625C35.217 164.4 34.9982 164.188 35.0258 164.152C35.0534 164.115 35.3166 164.268 35.6142 164.493C35.9118 164.718 36.1306 164.929 36.103 164.966Z" fill="#263238"/>
<path d="M33.9705 162.474C33.9297 162.495 33.7857 162.295 33.6485 162.027C33.5113 161.759 33.4329 161.525 33.4737 161.504C33.5145 161.484 33.6585 161.684 33.7957 161.952C33.9325 162.22 34.0109 162.454 33.9705 162.474Z" fill="#263238"/>
<path d="M33.689 165.817C33.647 165.799 33.7262 165.522 33.8654 165.197C34.005 164.873 34.1518 164.625 34.1938 164.643C34.2358 164.661 34.1566 164.938 34.0174 165.263C33.8782 165.587 33.731 165.836 33.689 165.817Z" fill="#263238"/>
<path d="M34.5259 169.43C34.4831 169.446 34.3319 169.151 34.1883 168.771C34.0447 168.39 33.9627 168.069 34.0055 168.052C34.0483 168.036 34.1995 168.332 34.3431 168.712C34.4867 169.093 34.5687 169.414 34.5259 169.43Z" fill="#263238"/>
<path d="M31.8146 172.031C31.783 171.998 31.941 171.793 32.1682 171.572C32.3954 171.351 32.6054 171.199 32.637 171.232C32.6686 171.265 32.5106 171.47 32.283 171.691C32.0562 171.911 31.8462 172.064 31.8146 172.031Z" fill="#263238"/>
<path d="M31.7399 166.867C31.7283 166.911 31.5027 166.889 31.2367 166.819C30.9703 166.748 30.7643 166.655 30.7759 166.611C30.7875 166.567 31.0127 166.588 31.2791 166.659C31.5455 166.73 31.7515 166.823 31.7399 166.867Z" fill="#263238"/>
<path d="M38.4485 161.107C38.4177 161.141 38.1901 160.981 37.9405 160.75C37.6909 160.52 37.5137 160.306 37.5445 160.272C37.5753 160.238 37.8029 160.398 38.0525 160.629C38.3021 160.86 38.4797 161.074 38.4485 161.107Z" fill="#263238"/>
<path d="M46.4347 150.835C46.5499 149.829 46.6515 148.797 46.4011 147.817C46.1507 146.837 45.4747 145.904 44.5011 145.629C43.3899 145.316 42.1839 145.946 41.4835 146.864C40.7831 147.782 40.4831 148.936 40.2159 150.059C38.3743 157.799 37.3351 165.73 37.1191 173.684L41.6883 174.658C44.3023 166.52 45.4623 159.327 46.4347 150.835Z" fill="#455A64"/>
<path d="M43.8662 145.548C43.8686 145.549 43.8598 145.574 43.8402 145.62C43.8158 145.675 43.7858 145.742 43.749 145.824C43.6598 146.013 43.5386 146.272 43.385 146.599C43.3082 146.768 43.2094 146.95 43.1254 147.16C43.041 147.371 42.9498 147.599 42.8518 147.844C42.753 148.089 42.6478 148.351 42.5362 148.628C42.4402 148.912 42.339 149.212 42.233 149.526C41.7942 150.78 41.395 152.314 41.0178 154.03C40.645 155.748 40.345 157.659 40.073 159.669C39.5502 163.696 39.2534 167.364 38.961 170.011C38.8178 171.334 38.6962 172.405 38.5926 173.143C38.5426 173.501 38.5034 173.784 38.4742 173.992C38.4602 174.08 38.4486 174.153 38.4394 174.212C38.4306 174.262 38.4246 174.287 38.4218 174.287C38.419 174.286 38.4194 174.26 38.4226 174.21C38.4274 174.15 38.4338 174.078 38.4414 173.988C38.4626 173.779 38.4918 173.495 38.529 173.135C38.6126 172.396 38.7166 171.324 38.845 169.999C39.1074 167.35 39.3858 163.681 39.9094 159.647C40.1818 157.633 40.4874 155.719 40.8694 153.997C41.2562 152.278 41.6682 150.742 42.123 149.487C42.2334 149.173 42.3386 148.874 42.4382 148.59C42.5542 148.314 42.6638 148.052 42.767 147.808C42.8698 147.564 42.9654 147.338 43.0538 147.128C43.1422 146.919 43.2458 146.738 43.3274 146.571C43.493 146.249 43.6238 145.994 43.7198 145.808C43.7622 145.728 43.797 145.664 43.8254 145.611C43.8498 145.568 43.8638 145.547 43.8662 145.548Z" fill="#263238"/>
<path d="M44.3027 145.583C44.3027 145.583 44.5651 145.893 44.7987 146.578C45.0423 147.257 45.1503 148.318 45.0079 149.593C44.7047 152.135 44.2271 155.633 43.6483 159.491C43.0679 163.35 42.4811 166.834 42.0291 169.35C41.8031 170.608 41.6123 171.625 41.4755 172.327C41.4071 172.666 41.3531 172.935 41.3131 173.134C41.2947 173.217 41.2795 173.286 41.2667 173.343C41.2555 173.39 41.2483 173.414 41.2455 173.413C41.2427 173.413 41.2443 173.388 41.2503 173.34C41.2587 173.283 41.2683 173.213 41.2807 173.128C41.3131 172.928 41.3571 172.657 41.4127 172.316C41.5335 171.596 41.7043 170.58 41.9147 169.331C42.3375 166.81 42.9055 163.325 43.4859 159.467C44.0643 155.611 44.5603 152.113 44.8927 149.582C45.0487 148.317 44.9599 147.275 44.7387 146.598C44.5259 145.917 44.2815 145.594 44.3027 145.583Z" fill="#263238"/>
<path d="M46.6515 157.753C46.6331 157.795 46.2487 157.666 45.7927 157.465C45.3367 157.264 44.9823 157.067 45.0007 157.025C45.0191 156.984 45.4035 157.113 45.8595 157.314C46.3155 157.515 46.6699 157.711 46.6515 157.753Z" fill="#263238"/>
<path d="M47.529 153.086C47.5446 153.129 47.1574 153.31 46.6642 153.49C46.1706 153.67 45.7582 153.781 45.7426 153.738C45.727 153.696 46.1142 153.515 46.6074 153.335C47.1006 153.155 47.513 153.044 47.529 153.086Z" fill="#263238"/>
<path d="M47.5183 149.227C47.5119 149.272 47.2027 149.266 46.8279 149.213C46.4527 149.161 46.1539 149.081 46.1603 149.036C46.1667 148.991 46.4759 148.997 46.8507 149.05C47.2255 149.103 47.5243 149.182 47.5183 149.227Z" fill="#263238"/>
<path d="M42.9233 146.437C42.8829 146.459 42.6989 146.192 42.5117 145.843C42.3249 145.493 42.2057 145.192 42.2461 145.17C42.2865 145.149 42.4705 145.415 42.6577 145.765C42.8445 146.115 42.9633 146.415 42.9233 146.437Z" fill="#263238"/>
<path d="M41.1885 148.646C41.1845 148.692 40.8885 148.701 40.5281 148.668C40.1677 148.635 39.8789 148.571 39.8829 148.525C39.8873 148.48 40.1829 148.47 40.5433 148.503C40.9041 148.536 41.1929 148.6 41.1885 148.646Z" fill="#263238"/>
<path d="M39.7385 153.207C39.7185 153.248 39.4157 153.141 39.0621 152.969C38.7085 152.796 38.4381 152.623 38.4581 152.582C38.4781 152.541 38.7809 152.648 39.1345 152.82C39.4881 152.993 39.7585 153.166 39.7385 153.207Z" fill="#263238"/>
<path d="M39.3456 157.102C39.3516 157.147 39.0824 157.221 38.7436 157.268C38.4048 157.314 38.1256 157.315 38.1192 157.27C38.1132 157.224 38.3824 157.15 38.7212 157.104C39.06 157.057 39.3392 157.056 39.3456 157.102Z" fill="#263238"/>
<path d="M38.3448 163.447C38.3496 163.492 38.0644 163.56 37.7076 163.598C37.3508 163.636 37.0576 163.63 37.0528 163.585C37.048 163.539 37.3332 163.471 37.69 163.433C38.0464 163.395 38.3396 163.401 38.3448 163.447Z" fill="#263238"/>
<path d="M37.7594 166.953C37.7778 166.995 37.5334 167.143 37.2134 167.285C36.8934 167.426 36.619 167.507 36.6006 167.465C36.5822 167.423 36.8266 167.275 37.1466 167.133C37.467 166.993 37.741 166.912 37.7594 166.953Z" fill="#263238"/>
<path d="M40.3508 171.168C40.3096 171.187 40.1268 170.893 39.942 170.51C39.7572 170.127 39.6412 169.801 39.682 169.781C39.7232 169.762 39.906 170.056 40.0908 170.439C40.2756 170.821 40.392 171.148 40.3508 171.168Z" fill="#263238"/>
<path d="M41.6579 164.563C41.6875 164.598 41.4423 164.855 41.1103 165.138C40.7779 165.42 40.4851 165.621 40.4555 165.586C40.4259 165.551 40.6711 165.294 41.0035 165.012C41.3347 164.729 41.6283 164.529 41.6579 164.563Z" fill="#263238"/>
<path d="M41.7056 161.064C41.67 161.093 41.4724 160.906 41.2648 160.647C41.0568 160.388 40.9172 160.155 40.9528 160.126C40.9884 160.098 41.1856 160.284 41.3936 160.543C41.6012 160.802 41.7412 161.036 41.7056 161.064Z" fill="#263238"/>
<path d="M42.5983 156.646C42.6299 156.679 42.4231 156.931 42.1355 157.209C41.8483 157.488 41.5895 157.687 41.5579 157.654C41.5263 157.621 41.7331 157.369 42.0207 157.091C42.3079 156.812 42.5667 156.613 42.5983 156.646Z" fill="#263238"/>
<path d="M43.1367 153.429C43.1023 153.459 42.8543 153.234 42.5827 152.926C42.3107 152.618 42.1183 152.344 42.1523 152.314C42.1863 152.284 42.4347 152.509 42.7067 152.817C42.9783 153.125 43.1711 153.399 43.1367 153.429Z" fill="#263238"/>
<path d="M44.0991 149.107C44.1367 149.133 43.9839 149.417 43.7579 149.741C43.5319 150.066 43.3187 150.307 43.2811 150.281C43.2435 150.255 43.3963 149.971 43.6223 149.647C43.8483 149.323 44.0615 149.081 44.0991 149.107Z" fill="#263238"/>
<path d="M45.5768 145.133C45.6152 145.157 45.478 145.443 45.2696 145.77C45.0616 146.097 44.8616 146.343 44.8228 146.318C44.7844 146.294 44.9216 146.009 45.13 145.681C45.3384 145.354 45.5384 145.108 45.5768 145.133Z" fill="#263238"/>
<path d="M46.7868 147.073C46.8036 147.116 46.6096 147.232 46.354 147.333C46.098 147.434 45.8772 147.481 45.8604 147.438C45.8436 147.396 46.0376 147.28 46.2932 147.179C46.5492 147.078 46.7704 147.031 46.7868 147.073Z" fill="#263238"/>
<path d="M45.7786 161.639C45.7666 161.681 45.3522 161.594 44.8914 161.356C44.4294 161.121 44.117 160.835 44.1442 160.8C44.1726 160.762 44.5198 160.981 44.9666 161.209C45.413 161.439 45.793 161.594 45.7786 161.639Z" fill="#263238"/>
<path d="M44.9995 164.681C45.0051 164.726 44.7207 164.798 44.3643 164.84C44.0079 164.883 43.7147 164.881 43.7091 164.836C43.7035 164.791 43.9879 164.719 44.3443 164.676C44.7007 164.634 44.9939 164.636 44.9995 164.681Z" fill="#263238"/>
<path d="M43.951 169.921C43.9218 169.954 43.5862 169.687 43.2918 169.255C42.9954 168.823 42.869 168.414 42.9098 168.398C42.9538 168.379 43.1426 168.746 43.4286 169.161C43.7114 169.578 43.9842 169.887 43.951 169.921Z" fill="#263238"/>
<path d="M36.3696 171.807C36.3424 171.771 36.5448 171.575 36.8216 171.371C37.0984 171.166 37.3448 171.03 37.3716 171.067C37.3988 171.103 37.1964 171.299 36.9196 171.503C36.6432 171.708 36.3968 171.844 36.3696 171.807Z" fill="#263238"/>
<path d="M27.0083 154.808C26.5035 152.789 24.9971 151.698 23.2475 151.597C21.6507 151.877 21.0315 153.449 20.8419 155.059C20.6523 156.669 21.1523 158.271 21.6459 159.815C23.2311 164.773 24.8159 169.73 26.4011 174.688C27.8991 174.524 29.3971 174.361 30.8951 174.197C29.4727 167.555 28.6559 161.398 27.0083 154.808Z" fill="#455A64"/>
<path d="M23.3111 151.464C23.3267 151.477 23.0719 151.692 22.7679 152.193C22.4647 152.69 22.1431 153.499 22.0839 154.545C22.0151 155.591 22.2483 156.832 22.6399 158.163C23.0347 159.501 23.4675 160.968 23.9223 162.509C24.8183 165.589 25.6295 168.377 26.2227 170.416C26.5055 171.417 26.7363 172.233 26.9015 172.817C26.9747 173.089 27.0335 173.307 27.0779 173.472C27.1167 173.623 27.1343 173.702 27.1287 173.704C27.1231 173.705 27.0951 173.629 27.0459 173.481C26.9939 173.318 26.9251 173.103 26.8395 172.835C26.6619 172.254 26.4143 171.443 26.1103 170.449C25.5051 168.414 24.6779 165.631 23.7635 162.556C23.3131 161.013 22.8843 159.544 22.4931 158.205C22.1079 156.866 21.8819 155.603 21.9671 154.537C22.0427 153.473 22.3883 152.653 22.7131 152.159C23.0391 151.66 23.3111 151.464 23.3111 151.464Z" fill="#263238"/>
<path d="M29.8977 173.712C29.8925 173.714 29.8577 173.64 29.7961 173.497C29.7369 173.353 29.6413 173.143 29.5401 172.865C29.3257 172.312 29.0513 171.499 28.7673 170.478C28.4817 169.458 28.2009 168.227 27.9297 166.854C27.6693 165.478 27.3833 163.968 27.0833 162.383C26.7705 160.801 26.4229 159.304 26.0189 157.968C25.6161 156.632 25.1641 155.457 24.7085 154.506C24.2553 153.553 23.8221 152.815 23.4969 152.322C23.3425 152.07 23.2017 151.889 23.1181 151.757C23.0313 151.628 22.9877 151.558 22.9925 151.555C22.9969 151.551 23.0493 151.614 23.1449 151.738C23.2373 151.863 23.3869 152.039 23.5501 152.286C23.8929 152.77 24.3441 153.503 24.8137 154.455C25.2853 155.405 25.7513 156.584 26.1645 157.924C26.5785 159.264 26.9321 160.766 27.2453 162.351C27.5409 163.937 27.8225 165.448 28.0789 166.825C28.3417 168.197 28.6097 169.427 28.8797 170.448C29.1485 171.469 29.4049 172.286 29.6001 172.843C29.6921 173.124 29.7777 173.337 29.8265 173.485C29.8785 173.632 29.9029 173.71 29.8977 173.712Z" fill="#263238"/>
<path d="M21.7351 159.076C21.7459 159.12 21.5015 159.217 21.1891 159.293C20.8767 159.369 20.6147 159.394 20.6039 159.35C20.5931 159.306 20.8375 159.208 21.1499 159.132C21.4627 159.056 21.7243 159.031 21.7351 159.076Z" fill="#263238"/>
<path d="M21.2564 156.009C21.254 156.056 20.9144 156.074 20.4984 156.091C20.0824 156.107 19.7424 156.115 19.7364 156.069C19.7304 156.024 20.0672 155.942 20.492 155.926C20.9164 155.909 21.2588 155.964 21.2564 156.009Z" fill="#263238"/>
<path d="M21.758 153.204C21.7284 153.239 21.4844 153.08 21.2128 152.85C20.9412 152.62 20.7448 152.405 20.7744 152.37C20.804 152.335 21.048 152.494 21.3196 152.724C21.5912 152.955 21.7876 153.17 21.758 153.204Z" fill="#263238"/>
<path d="M23.1102 150.61C23.1558 150.62 23.1434 150.839 23.1366 151.103C23.1282 151.367 23.1278 151.585 23.0818 151.593C23.0378 151.601 22.9626 151.381 22.9714 151.098C22.9786 150.815 23.067 150.599 23.1102 150.61Z" fill="#263238"/>
<path d="M25.9379 151.836C25.9755 151.862 25.8655 152.083 25.6927 152.33C25.5199 152.577 25.3495 152.756 25.3119 152.73C25.2747 152.704 25.3843 152.482 25.5571 152.235C25.7303 151.988 25.9007 151.809 25.9379 151.836Z" fill="#263238"/>
<path d="M27.747 154.991C27.7642 155.034 27.5314 155.169 27.2274 155.293C26.923 155.417 26.6626 155.483 26.6454 155.441C26.6282 155.398 26.861 155.263 27.165 155.139C27.469 155.015 27.7298 154.949 27.747 154.991Z" fill="#263238"/>
<path d="M28.8373 158.241C28.8557 158.281 28.5477 158.457 28.1249 158.551C27.7025 158.648 27.3485 158.622 27.3477 158.578C27.3457 158.531 27.6829 158.483 28.0881 158.39C28.4937 158.3 28.8185 158.197 28.8373 158.241Z" fill="#263238"/>
<path d="M23.7676 157.311C23.724 157.297 23.7556 157.073 23.838 156.809C23.9204 156.546 24.0228 156.343 24.0664 156.357C24.11 156.371 24.0784 156.595 23.996 156.859C23.9132 157.122 23.8112 157.324 23.7676 157.311Z" fill="#263238"/>
<path d="M24.5044 161.394C24.4624 161.376 24.5536 161.074 24.7076 160.719C24.8616 160.364 25.0208 160.091 25.0624 160.109C25.1044 160.127 25.0132 160.43 24.8592 160.785C24.7052 161.14 24.5464 161.413 24.5044 161.394Z" fill="#263238"/>
<path d="M22.7388 162.512C22.7212 162.554 22.4364 162.477 22.0916 162.37C21.7472 162.261 21.4688 162.163 21.4788 162.118C21.4884 162.074 21.7888 162.101 22.1412 162.212C22.4936 162.321 22.7564 162.47 22.7388 162.512Z" fill="#263238"/>
<path d="M23.7514 165.841C23.7778 165.878 23.5854 166.061 23.3214 166.249C23.0574 166.437 22.8218 166.56 22.7954 166.523C22.769 166.486 22.9614 166.303 23.2254 166.115C23.4894 165.926 23.725 165.804 23.7514 165.841Z" fill="#263238"/>
<path d="M24.5524 169.154C24.5632 169.199 24.3252 169.295 24.0204 169.369C23.716 169.443 23.4604 169.467 23.4496 169.422C23.4388 169.378 23.6768 169.282 23.9816 169.208C24.286 169.134 24.5416 169.11 24.5524 169.154Z" fill="#263238"/>
<path d="M28.9422 161.014C28.965 161.052 28.7618 161.214 28.465 161.326C28.1686 161.438 27.9086 161.45 27.9006 161.406C27.8918 161.361 28.125 161.278 28.4066 161.171C28.6886 161.065 28.9186 160.973 28.9422 161.014Z" fill="#263238"/>
<path d="M29.5519 166.175C29.5323 166.216 29.2899 166.143 29.0099 166.011C28.7299 165.88 28.5191 165.739 28.5383 165.698C28.5579 165.657 28.8003 165.73 29.0803 165.862C29.3599 165.993 29.5711 166.133 29.5519 166.175Z" fill="#263238"/>
<path d="M30.6605 169.861C30.6437 169.903 30.3233 169.817 29.9449 169.669C29.5665 169.521 29.2729 169.366 29.2897 169.323C29.3065 169.281 29.6265 169.367 30.0053 169.515C30.3837 169.663 30.6769 169.818 30.6605 169.861Z" fill="#263238"/>
<path d="M24.7336 172.76C24.7112 172.718 25.006 172.52 25.3464 172.251C25.6884 171.984 25.9504 171.745 25.9856 171.776C26.0192 171.805 25.8036 172.104 25.4488 172.381C25.0952 172.66 24.7536 172.799 24.7336 172.76Z" fill="#263238"/>
<path d="M27.6682 170.882C27.6214 170.888 27.5578 170.64 27.445 170.351C27.3346 170.062 27.215 169.836 27.2534 169.808C27.2882 169.781 27.4798 169.98 27.5994 170.292C27.7206 170.603 27.7122 170.879 27.6682 170.882Z" fill="#263238"/>
<path d="M26.8741 166.443C26.8473 166.48 26.6589 166.39 26.4529 166.243C26.2469 166.095 26.1017 165.945 26.1281 165.908C26.1545 165.871 26.3433 165.961 26.5493 166.108C26.7553 166.256 26.9009 166.406 26.8741 166.443Z" fill="#263238"/>
<path d="M46.0962 172.669H22.5762V176.838H46.0962V172.669Z" fill="#11489B"/>
<path d="M24.332 176.011L27.1924 188.468H41.21L44.3392 176.011H24.332Z" fill="#11489B"/>
<path d="M46.082 176.842C46.082 176.887 40.7768 176.924 34.234 176.924C27.6888 176.924 22.3848 176.888 22.3848 176.842C22.3848 176.796 27.6888 176.759 34.234 176.759C40.7764 176.759 46.082 176.796 46.082 176.842Z" fill="#263238"/>
<path d="M141.736 154.599C141.736 155.401 154.203 188.593 154.203 188.593H159.219L146.786 154.599H141.736Z" fill="#455A64"/>
<path d="M128.888 152.994H123.889V188.59H128.888V152.994Z" fill="#455A64"/>
<path d="M156.52 165.335H140.604V168.879H156.52V165.335Z" fill="#455A64"/>
<path d="M151.564 152.366H123.889V155.91H151.564V152.366Z" fill="#455A64"/>
<path d="M161.494 178.298H145.021V181.841H161.494V178.298Z" fill="#455A64"/>
<path d="M151.714 156.027C151.714 156.084 145.471 156.131 137.771 156.131C130.068 156.131 123.826 156.084 123.826 156.027C123.826 155.969 130.068 155.923 137.771 155.923C145.471 155.923 151.714 155.969 151.714 156.027Z" fill="#263238"/>
<path d="M128.983 188.588C128.925 188.588 128.879 181.296 128.879 172.304C128.879 163.309 128.926 156.02 128.983 156.02C129.041 156.02 129.087 163.309 129.087 172.304C129.087 181.296 129.041 188.588 128.983 188.588Z" fill="#263238"/>
<path d="M154.191 188.591C154.137 188.611 151.389 181.299 148.054 172.262C144.718 163.221 142.058 155.878 142.112 155.858C142.166 155.838 144.913 163.149 148.25 172.19C151.585 181.227 154.245 188.572 154.191 188.591Z" fill="#263238"/>
<path d="M159.291 188.591C159.237 188.611 156.489 181.299 153.154 172.262C149.818 163.221 147.158 155.878 147.212 155.858C147.266 155.838 150.013 163.149 153.349 172.19C156.684 181.227 159.344 188.572 159.291 188.591Z" fill="#263238"/>
<path d="M174.971 79.2191C174.597 77.6107 173.693 76.1847 172.803 74.7939C171.37 75.6795 169.821 76.3743 168.207 76.8551L168.679 85.1827C170.533 85.2395 172.592 85.1391 173.914 83.8391C175.092 82.6811 175.345 80.8271 174.971 79.2191Z" fill="#FFBE9D"/>
<path d="M169.075 64.5527L165.025 73.7379C166.514 75.1991 167.692 76.9747 168.459 78.9143C170.881 77.7263 173.099 76.1271 174.992 74.2051C173.005 71.4431 170.703 65.8455 169.075 64.5527Z" fill="#11489B"/>
<path d="M163.473 44.2259L161.841 60.1091C161.563 62.8103 160.603 66.7211 156.353 66.0875C152.706 65.2595 152.13 61.6507 152.392 59.1303C152.516 57.9347 152.617 56.9375 152.622 56.8139C152.622 56.8139 148.617 56.0179 148.737 51.9859C148.795 50.0375 149.241 46.0339 149.685 42.4167C150.163 38.5319 153.549 35.6679 157.46 35.8319L157.849 35.8483C162.031 36.2691 164.01 40.0567 163.473 44.2259Z" fill="#FFBE9D"/>
<path d="M152.653 56.7324C152.653 56.7324 155.191 57.0464 157.969 55.46C157.969 55.46 156.606 58.308 152.6 57.7764L152.653 56.7324Z" fill="#EB996E"/>
<path d="M150.24 44.4579C150.306 44.5443 150.88 44.4395 151.592 44.6635C152.306 44.8795 152.758 45.3003 152.853 45.2631C152.898 45.2479 152.845 45.1123 152.649 44.9247C152.457 44.7387 152.105 44.5067 151.661 44.3695C151.216 44.2327 150.811 44.2311 150.564 44.2819C150.312 44.3315 150.207 44.4183 150.24 44.4579Z" fill="#263238"/>
<path d="M156.377 45.3646C156.473 45.4118 156.939 45.0694 157.674 44.9542C158.407 44.8318 158.995 45.0034 159.063 44.9294C159.097 44.8962 158.99 44.8006 158.733 44.7214C158.479 44.6422 158.063 44.5922 157.606 44.6666C157.149 44.741 156.786 44.9166 156.588 45.069C156.385 45.2226 156.33 45.3442 156.377 45.3646Z" fill="#263238"/>
<path d="M156.382 46.6735C156.364 46.9079 156.547 47.1163 156.792 47.1399C157.036 47.1635 157.248 46.9927 157.266 46.7583C157.284 46.5239 157.101 46.3151 156.857 46.2915C156.613 46.2679 156.4 46.4391 156.382 46.6735Z" fill="#263238"/>
<path d="M150.472 46.1864C150.454 46.4208 150.637 46.6292 150.882 46.6528C151.126 46.6764 151.338 46.5056 151.356 46.2712C151.374 46.0368 151.191 45.828 150.947 45.8044C150.703 45.7812 150.49 45.952 150.472 46.1864Z" fill="#263238"/>
<path d="M154.159 49.2635C154.163 49.2283 153.781 49.1455 153.161 49.0399C153.003 49.0171 152.855 48.9795 152.833 48.8703C152.8 48.7543 152.873 48.5867 152.958 48.4059C153.123 48.0295 153.295 47.6347 153.476 47.2215C154.198 45.5343 154.727 44.1443 154.659 44.1159C154.59 44.0875 153.95 45.4319 153.229 47.1191C153.055 47.5351 152.889 47.9319 152.73 48.3115C152.663 48.4887 152.551 48.6883 152.622 48.9287C152.66 49.0487 152.772 49.1391 152.873 49.1707C152.973 49.2059 153.062 49.2115 153.14 49.2191C153.765 49.2791 154.155 49.2987 154.159 49.2635Z" fill="#263238"/>
<path d="M156.94 42.3221C156.987 42.4781 157.536 42.4281 158.173 42.5349C158.812 42.6285 159.321 42.8441 159.412 42.7101C159.453 42.6457 159.369 42.4977 159.166 42.3401C158.965 42.1829 158.64 42.0281 158.258 41.9677C157.875 41.9081 157.52 41.9565 157.282 42.0449C157.043 42.1325 156.92 42.2481 156.94 42.3221Z" fill="#263238"/>
<path d="M150.331 42.87C150.388 42.9992 150.925 42.9252 151.56 42.9784C152.196 43.0204 152.71 43.1736 152.792 43.0548C152.828 42.998 152.736 42.8776 152.527 42.756C152.319 42.6348 151.99 42.5224 151.609 42.4932C151.228 42.4652 150.881 42.5268 150.652 42.6152C150.422 42.7036 150.307 42.8084 150.331 42.87Z" fill="#263238"/>
<path d="M163.011 47.1831C163.081 47.1563 165.814 46.4803 165.61 49.2319C165.407 51.9835 162.686 51.2111 162.688 51.1319C162.689 51.0527 163.011 47.1831 163.011 47.1831Z" fill="#FFBE9D"/>
<path d="M163.574 50.1319C163.586 50.1239 163.619 50.1691 163.697 50.2123C163.774 50.2543 163.908 50.2895 164.055 50.2463C164.353 50.1611 164.632 49.7179 164.682 49.2227C164.708 48.9731 164.673 48.7307 164.599 48.5267C164.53 48.3191 164.41 48.1691 164.266 48.1319C164.123 48.0875 164.013 48.1675 163.974 48.2423C163.931 48.3167 163.944 48.3727 163.93 48.3763C163.921 48.3827 163.874 48.3259 163.904 48.2139C163.92 48.1603 163.957 48.0975 164.025 48.0495C164.095 48.0007 164.194 47.9803 164.296 47.9991C164.507 48.0295 164.683 48.2387 164.765 48.4627C164.858 48.6883 164.903 48.9611 164.874 49.2419C164.816 49.7951 164.494 50.2927 164.087 50.3783C163.89 50.4143 163.733 50.3443 163.654 50.2731C163.574 50.1987 163.564 50.1359 163.574 50.1319Z" fill="#EB996E"/>
<path d="M154.528 51.2577C154.506 51.1849 155.061 51.0865 155.496 50.6265C155.714 50.4005 155.853 50.1429 155.958 49.9549C156.061 49.7653 156.136 49.6477 156.164 49.6601C156.191 49.6721 156.169 49.8057 156.1 50.0169C156.03 50.2253 155.901 50.5205 155.655 50.7773C155.412 51.0373 155.11 51.1745 154.894 51.2321C154.675 51.2933 154.533 51.2821 154.528 51.2577Z" fill="#263238"/>
<path d="M146.532 39.5127C146.286 39.5883 146.073 39.7991 146.022 40.0567C145.946 40.4335 146.187 40.8355 146.539 40.9899C146.891 41.1443 147.321 41.0667 147.629 40.8375C147.488 40.9179 147.36 41.0207 147.25 41.1395C146.694 41.7391 147.497 42.6643 148.168 42.1971C148.172 42.1943 148.176 42.1915 148.18 42.1887C148.28 42.4147 148.349 42.6395 148.423 42.8647L148.422 42.8699L148.439 42.9127C148.485 43.0531 148.534 43.1935 148.596 43.3339L148.598 43.3251L149.336 45.2351C149.525 44.1175 149.613 42.5175 149.802 41.4003C151.546 41.5255 153.196 41.0067 154.508 39.8519C155.201 39.2427 155.782 38.4463 156.65 38.1347C157.769 37.7331 158.987 38.2599 160.058 38.7763L160.016 38.7283C160.565 39.0639 161.05 39.5059 161.434 40.0231C160.927 42.2071 160.897 44.5007 161.348 46.6971C161.416 47.0279 161.626 47.7175 161.925 47.8747C162.512 48.1831 162.75 47.5763 163.159 47.2863C163.459 47.0727 163.867 47.0879 164.309 47.1399C164.647 46.4867 165.048 45.3667 165.389 44.3851L165.882 43.4591L165.88 42.3555C165.421 41.3239 166.689 40.9655 166.501 39.8519C166.314 38.7383 165.842 37.5527 164.829 37.0539L164.804 37.0615C163.899 36.5703 162.73 36.4299 161.875 36.9987C161.846 35.5531 160.729 34.2823 159.381 33.7575C158.034 33.2327 155.781 33.1931 154.387 33.5759C153.309 33.8715 152.215 34.6063 150.861 35.7143C150.29 36.1811 149.559 37.8959 149.072 38.4495L146.532 39.5127Z" fill="#263238"/>
<path d="M161.194 32.4237C161.386 32.4801 165.991 34.2617 166.658 37.9865C167.324 41.7117 166.813 42.7497 166.813 42.7497C166.813 42.7497 167.065 42.9585 167.247 43.2509C167.411 43.5129 166.956 44.5885 166.353 44.3701C162.004 41.6217 156.527 40.5989 150.362 39.8809L145.672 39.1269C144.334 39.0849 143.924 38.6673 144.528 38.4193C144.991 38.2293 148.946 37.2829 148.946 37.2829L149.759 36.8565L152.098 34.4533C152.098 34.4533 151.914 34.0433 152.434 33.8021C152.955 33.5609 157.387 31.3077 161.194 32.4237Z" fill="#11489B"/>
<path d="M149.768 36.8457C149.768 36.8457 149.83 36.8581 149.951 36.8741C150.094 36.8921 150.268 36.9141 150.477 36.9401C150.935 36.9881 151.593 37.0913 152.404 37.2293C154.021 37.5245 156.24 38.0569 158.592 38.9405C160.95 39.8085 163.001 40.8017 164.47 41.5413C165.207 41.9097 165.796 42.2205 166.205 42.4321C166.392 42.5289 166.548 42.6093 166.676 42.6757C166.784 42.7305 166.843 42.7557 166.843 42.7557C166.843 42.7557 166.79 42.7209 166.684 42.6613C166.558 42.5913 166.404 42.5065 166.22 42.4045C165.816 42.1845 165.23 41.8661 164.496 41.4909C163.032 40.7381 160.982 39.7353 158.62 38.8657C156.264 37.9805 154.037 37.4553 152.414 37.1737C150.787 36.9017 149.768 36.8457 149.768 36.8457Z" fill="#263238"/>
<g opacity="0.3">
<path d="M165.256 35.1543C165.256 35.1543 160.245 33.5643 157.782 34.3299C157.878 34.2983 157.974 34.2667 158.069 34.2351C157.298 34.4463 156.527 34.6579 155.756 34.8691C155.365 34.9763 154.911 35.0731 154.584 34.8339C154.584 34.8339 155.898 33.9631 158.154 33.5547C160.409 33.1459 163.866 33.3379 165.256 35.1543Z" fill="black"/>
</g>
<path d="M165.31 35.192C165.31 35.192 165.176 35.0444 164.894 34.8224C164.614 34.6012 164.186 34.2996 163.603 34.0296C163.024 33.7548 162.29 33.5132 161.449 33.3892C160.614 33.2648 159.656 33.2424 158.708 33.5164C158.234 33.6468 157.791 33.8276 157.366 34.0028C156.943 34.1856 156.528 34.34 156.145 34.5276C155.766 34.7148 155.414 34.9088 155.055 35.012C154.699 35.1316 154.349 35.1056 154.034 35.0652C152.769 34.896 152.033 34.5204 152.102 34.4488C152.102 34.4456 152.109 34.5052 152.188 34.5632C152.265 34.6184 152.388 34.6876 152.556 34.7508C152.891 34.88 153.391 35.028 154.026 35.1208C154.34 35.1656 154.709 35.1948 155.074 35.0752C155.442 34.9724 155.8 34.7776 156.178 34.5936C156.555 34.4108 156.974 34.2564 157.396 34.0752C157.821 33.9012 158.262 33.722 158.73 33.5936C159.665 33.3236 160.608 33.3428 161.439 33.4624C162.272 33.5812 163.001 33.8156 163.579 34.0816C164.16 34.3432 164.59 34.6348 164.876 34.8476C165.018 34.9544 165.126 35.042 165.197 35.1036C165.269 35.1636 165.31 35.192 165.31 35.192Z" fill="#263238"/>
<g opacity="0.3">
<path d="M166.904 39.5249C165.985 39.3825 165.322 39.0405 164.438 38.7057C163.495 38.3489 162.556 38.0377 161.632 37.6365C160.93 37.3317 160.092 37.0281 159.694 36.4297C159.568 36.8013 159.632 37.1641 159.872 37.4737C160.112 37.7833 160.972 38.2373 161.331 38.3945C163.378 39.2905 164.798 39.8989 166.988 40.3797C167.003 40.1485 166.904 39.5249 166.904 39.5249Z" fill="black"/>
</g>
<path d="M166.572 37.5749C167.118 37.9141 167.451 38.1373 167.394 38.6365C167.347 39.0521 167.188 39.5453 166.77 39.5573C166.643 39.5609 166.52 39.5173 166.4 39.4741C164.345 38.7345 162.29 37.9949 160.235 37.2553C160.026 37.1801 159.801 37.0913 159.691 36.8993C159.522 36.6033 159.733 36.2065 160.04 36.0581C160.347 35.9101 160.707 35.9421 161.045 35.9857C162.966 36.2333 164.786 36.8265 166.572 37.5749Z" fill="#11489B"/>
<path d="M159.782 36.9995C159.793 36.9939 159.681 36.9131 159.652 36.6971C159.623 36.4943 159.703 36.1379 160.031 35.9339C160.365 35.7467 160.853 35.7395 161.351 35.8399C161.857 35.9407 162.412 36.0591 162.99 36.2031C164.147 36.4867 165.168 36.8435 165.878 37.1675C166.234 37.3251 166.514 37.4715 166.708 37.5727C166.787 37.6155 166.86 37.6547 166.929 37.6923C166.98 37.7187 167.008 37.7315 167.009 37.7295C167.01 37.7271 166.986 37.7099 166.937 37.6787C166.87 37.6371 166.799 37.5935 166.722 37.5459C166.533 37.4359 166.256 37.2815 165.901 37.1163C165.194 36.7779 164.17 36.4107 163.009 36.1259C162.43 35.9815 161.873 35.8651 161.364 35.7679C160.857 35.6707 160.356 35.6795 160.002 35.8859C159.652 36.1131 159.582 36.4903 159.621 36.7019C159.64 36.8127 159.684 36.8903 159.718 36.9371C159.757 36.9819 159.781 37.0011 159.782 36.9995Z" fill="#263238"/>
<path d="M151.362 35.207L155.372 35.7138L154.868 36.7902L150.535 36.057L151.362 35.207Z" fill="white"/>
<path d="M156.897 39.6407C156.903 39.6195 155.158 39.1019 153.001 38.4851C150.842 37.8679 149.088 37.3847 149.082 37.4059C149.076 37.4271 150.82 37.9443 152.979 38.5615C155.137 39.1787 156.891 39.6619 156.897 39.6407Z" fill="#263238"/>
<path d="M185.208 94.2448L187.252 88.934L192.452 86.6244L196.472 89.7524L197.613 88.6112C196.723 84.7952 194.02 81.4732 190.087 79.9592C185.463 78.1796 180.426 79.3968 177.108 82.6564L123.227 62.0568C122.951 57.4136 120.03 53.1328 115.406 51.3532C111.473 49.8396 107.241 50.4924 104.021 52.7264L102.88 53.8676L109.183 54.7128L111.492 59.9132L109.448 65.224L104.248 67.5336L98.7657 65.868L97.9453 66.6884C99.0949 69.9512 103.131 72.8588 106.613 74.1988C111.23 75.976 116.259 74.7648 119.577 71.516L173.474 92.122C173.758 96.7572 176.677 101.028 181.294 102.805C185.227 104.318 189.952 103.886 193.171 101.652L187.518 99.4452L185.208 94.2448Z" fill="#E0E0E0"/>
<g opacity="0.3">
<path d="M185.208 94.2448L187.252 88.934L192.452 86.6244L196.472 89.7524L197.613 88.6112C196.723 84.7952 194.02 81.4732 190.087 79.9592C185.463 78.1796 180.426 79.3968 177.108 82.6564L123.227 62.0568C122.951 57.4136 120.03 53.1328 115.406 51.3532C111.473 49.8396 107.241 50.4924 104.021 52.7264L102.88 53.8676L109.183 54.7128L111.492 59.9132L109.448 65.224L104.248 67.5336L98.7657 65.868L97.9453 66.6884C99.0725 70.01 103.083 72.8404 106.613 74.1988C111.23 75.976 116.259 74.7648 119.577 71.516L173.474 92.122C173.758 96.7572 176.677 101.028 181.294 102.805C185.227 104.318 189.952 103.886 193.171 101.652L187.518 99.4452L185.208 94.2448Z" fill="black"/>
</g>
<path d="M184.066 95.3864L186.11 90.0756L191.311 87.766L196.471 89.7524C195.581 85.9364 192.878 82.614 188.946 81.1004C184.322 79.3208 179.285 80.538 175.966 83.7976L122.086 63.1984C121.809 58.5552 118.888 54.2744 114.265 52.4948C110.332 50.9812 106.099 51.634 102.88 53.868L108.041 55.8544L110.351 61.0548L108.307 66.3656L103.107 68.6752L97.9453 66.6888C98.8357 70.5048 101.539 73.8268 105.471 75.3404C110.089 77.1176 115.118 75.9064 118.436 72.6576L172.333 93.2636C172.617 97.8988 175.536 102.169 180.153 103.946C184.085 105.46 188.318 104.807 191.537 102.573L186.377 100.587L184.066 95.3864Z" fill="#E0E0E0"/>
<path d="M121.721 65.5791C121.736 65.5799 121.741 65.6967 121.738 65.9087C121.738 66.1207 121.713 66.4271 121.661 66.8023C121.557 67.5531 121.295 68.5815 120.792 69.6295C120.285 70.6763 119.645 71.5231 119.123 72.0719C118.862 72.3475 118.638 72.5575 118.472 72.6899C118.308 72.8243 118.214 72.8931 118.204 72.8823C118.181 72.8555 118.526 72.5419 119.013 71.9739C119.5 71.4075 120.108 70.5655 120.604 69.5395C121.097 68.5119 121.377 67.5119 121.516 66.7779C121.656 66.0431 121.686 65.5771 121.721 65.5791Z" fill="#263238"/>
<path d="M184.058 95.3868C184.058 95.3868 184.113 95.4984 184.213 95.7192C184.314 95.9424 184.463 96.2712 184.659 96.7056C185.051 97.5796 185.632 98.8752 186.395 100.575L186.378 100.56C187.795 101.101 189.533 101.766 191.543 102.535L191.616 102.563L191.552 102.607C190.267 103.49 188.673 104.244 186.821 104.6C184.977 104.955 182.876 104.906 180.795 104.234C178.717 103.579 176.663 102.294 175.083 100.394C173.509 98.5016 172.433 95.9972 172.253 93.268L172.299 93.33C157.869 87.8212 139.329 80.7432 118.392 72.7504L118.497 72.7288C117.001 74.1848 115.115 75.274 113.052 75.8304C110.993 76.3968 108.757 76.4068 106.653 75.828C104.548 75.2656 102.574 74.1256 101.022 72.5352C99.4706 70.944 98.357 68.9092 97.8362 66.7124L97.791 66.522L97.9738 66.5924C99.5978 67.2172 101.361 67.896 103.135 68.5784L103.056 68.5804C104.697 67.8512 106.472 67.0632 108.256 66.2704L108.201 66.328C108.849 64.6468 109.545 62.8364 110.245 61.0172L110.247 61.0968L110.245 61.0916C109.472 59.3512 108.703 57.6188 107.937 55.8964L107.995 55.9512C106.265 55.2852 104.544 54.6228 102.834 53.9644L102.651 53.8936L102.812 53.782C104.667 52.5036 106.854 51.7412 109.069 51.5976C111.285 51.4568 113.513 51.9308 115.454 52.9236C116.427 53.4156 117.331 54.0344 118.135 54.758C118.935 55.4856 119.634 56.3156 120.213 57.2156C121.375 59.0156 122.047 61.0968 122.177 63.1916L122.113 63.104C142.783 71.0172 161.239 78.0828 175.984 83.7272L175.905 83.7436C177.815 81.882 180.223 80.7476 182.613 80.37C185.011 79.9804 187.375 80.3584 189.371 81.2148C191.377 82.0688 193.02 83.4068 194.201 84.922C195.39 86.4396 196.128 88.1228 196.51 89.7404L196.531 89.8304L196.445 89.7972C194.379 88.998 192.751 88.3684 191.287 87.8028L191.318 87.802C189.106 88.7788 187.459 89.506 186.113 90.1008L186.127 90.0852C185.421 91.9024 184.906 93.2264 184.567 94.0988C184.397 94.5324 184.271 94.8532 184.186 95.0688C184.103 95.2828 184.058 95.3868 184.058 95.3868C184.058 95.3868 184.093 95.2828 184.173 95.07C184.254 94.854 184.376 94.5328 184.539 94.098C184.873 93.2216 185.38 91.8916 186.076 90.066L186.08 90.0552L186.091 90.0504C187.435 89.45 189.078 88.716 191.286 87.7296L191.301 87.7228L191.317 87.7288C192.782 88.29 194.412 88.9148 196.481 89.7072L196.416 89.764C196.031 88.1604 195.295 86.4936 194.114 84.9924C192.939 83.4936 191.31 82.1728 189.322 81.3316C187.344 80.488 185.006 80.1184 182.635 80.508C180.273 80.8852 177.895 82.0104 176.011 83.852L175.976 83.886L175.931 83.8688C161.181 78.2372 142.719 71.188 122.041 63.2928L121.981 63.2696L121.977 63.2048C121.848 61.1444 121.186 59.0968 120.043 57.3268C119.473 56.4416 118.785 55.6256 117.998 54.9104C117.207 54.1996 116.319 53.5912 115.361 53.1076C113.451 52.1316 111.26 51.666 109.082 51.8048C106.904 51.9464 104.754 52.6964 102.93 53.9536L102.908 53.7716C104.618 54.4296 106.339 55.092 108.069 55.758L108.109 55.7736L108.127 55.8132C108.892 57.5356 109.661 59.268 110.435 61.0084L110.437 61.0136L110.455 61.0532L110.439 61.0936C109.739 62.9128 109.042 64.7228 108.395 66.404L108.379 66.4444L108.34 66.462C106.555 67.2544 104.781 68.0424 103.139 68.7716L103.1 68.7892L103.06 68.7736C101.287 68.0908 99.5234 67.412 97.8994 66.7868L98.037 66.6668C98.5486 68.8268 99.6434 70.8284 101.168 72.3936C102.694 73.9576 104.635 75.0796 106.706 75.6336C108.774 76.2036 110.973 76.1948 112.999 75.638C115.029 75.0912 116.885 74.0204 118.358 72.5888L118.403 72.5444L118.463 72.5672C139.391 80.5804 157.925 87.6764 172.349 93.1992L172.392 93.2156L172.395 93.2612C172.569 95.9588 173.627 98.4384 175.181 100.314C176.741 102.197 178.772 103.474 180.829 104.128C182.89 104.798 184.973 104.852 186.803 104.505C188.641 104.157 190.225 103.414 191.505 102.542L191.514 102.614C189.507 101.836 187.771 101.164 186.357 100.616L186.345 100.612L186.341 100.601C185.589 98.892 185.016 97.5892 184.629 96.7108C184.439 96.2752 184.295 95.9452 184.198 95.7216C184.103 95.4988 184.058 95.3868 184.058 95.3868Z" fill="#263238"/>
<path d="M147.847 62.537L144.017 93.1338C143.831 94.6218 144.783 96.015 146.237 96.3822L165.993 99.8042C167.167 100.007 168.245 99.1126 168.259 97.9214C168.308 93.707 168.481 84.591 169.079 78.9102C169.739 72.6478 171.416 67.5346 169.079 64.5486C166.742 61.563 162.665 59.479 162.665 59.479L162.235 57.6182C162.235 57.6182 153.707 57.6306 152.237 58.9054L151.332 60.4734L147.847 62.537Z" fill="#11489B"/>
<path d="M169.927 69.5811C169.934 69.5815 169.935 69.6495 169.931 69.7783C169.923 69.9311 169.913 70.1167 169.902 70.3411C169.865 70.8615 169.815 71.5599 169.755 72.4083C169.622 74.1531 169.424 76.5623 169.192 79.2223C168.96 81.8831 168.739 84.2903 168.568 86.0319C168.481 86.8779 168.409 87.5739 168.355 88.0927C168.328 88.3155 168.305 88.5003 168.287 88.6519C168.269 88.7795 168.256 88.8463 168.249 88.8455C168.241 88.8447 168.24 88.7767 168.245 88.6475C168.253 88.4947 168.263 88.3087 168.275 88.0843C168.311 87.5639 168.361 86.8655 168.421 86.0167C168.555 84.2719 168.753 81.8627 168.985 79.2027C169.216 76.5435 169.438 74.1371 169.609 72.3955C169.696 71.5495 169.768 70.8531 169.821 70.3339C169.849 70.1107 169.871 69.9263 169.89 69.7743C169.907 69.6475 169.92 69.5807 169.927 69.5811Z" fill="#263238"/>
<path d="M162.666 59.4805C162.666 59.4949 162.508 59.5101 162.22 59.5253C161.888 59.5417 161.482 59.5617 161.005 59.5853C159.979 59.6357 158.563 59.7249 157.003 59.8689C155.442 60.0117 154.032 60.1769 153.011 60.2949C152.536 60.3485 152.132 60.3937 151.801 60.4309C151.515 60.4601 151.356 60.4693 151.354 60.4549C151.352 60.4405 151.507 60.4041 151.79 60.3505C152.072 60.2965 152.483 60.2273 152.992 60.1489C154.009 59.9933 155.419 59.8045 156.984 59.6617C158.548 59.5173 159.971 59.4509 161 59.4385C161.515 59.4313 161.932 59.4345 162.22 59.4449C162.507 59.4541 162.666 59.4661 162.666 59.4805Z" fill="#263238"/>
<path d="M131.307 140L134.664 147.485C134.664 147.485 125.827 150.945 125.756 152.589L142.954 152.278L142.933 150.842L139.139 138.493L131.307 140Z" fill="#11489B"/>
<path d="M139.796 146.137C140.13 146.222 140.367 146.592 140.296 146.93C140.225 147.267 139.85 147.512 139.515 147.432C139.179 147.354 138.881 146.918 138.989 146.59C139.098 146.262 139.553 146 139.86 146.157" fill="#E0E0E0"/>
<path d="M142.935 152.292L142.913 150.855L126.4 151.718C126.4 151.718 125.641 152.065 125.737 152.603L142.935 152.292Z" fill="#263238"/>
<path d="M134.415 147.407C134.419 147.491 134.839 147.521 135.257 147.784C135.683 148.035 135.902 148.395 135.979 148.361C136.056 148.343 135.921 147.843 135.409 147.534C134.901 147.221 134.395 147.33 134.415 147.407Z" fill="#263238"/>
<path d="M132.698 148.182C132.68 148.264 133.046 148.4 133.338 148.75C133.64 149.092 133.719 149.474 133.802 149.469C133.881 149.481 133.931 148.988 133.56 148.56C133.193 148.128 132.698 148.102 132.698 148.182Z" fill="#263238"/>
<path d="M131.647 150.36C131.723 150.377 131.833 149.955 131.609 149.499C131.388 149.042 130.989 148.867 130.955 148.938C130.909 149.008 131.168 149.25 131.346 149.627C131.533 150 131.563 150.354 131.647 150.36Z" fill="#263238"/>
<path d="M133.812 145.451C133.848 145.527 134.231 145.404 134.707 145.428C135.182 145.442 135.555 145.594 135.597 145.521C135.645 145.46 135.278 145.155 134.718 145.135C134.158 145.111 133.769 145.386 133.812 145.451Z" fill="#263238"/>
<path d="M161.024 164.192L161.407 178.467L153.9 178.446L153.498 164.518L161.024 164.192Z" fill="#11489B"/>
<path d="M157.682 177.761C157.619 177.762 157.525 174.718 157.471 170.963C157.418 167.208 157.425 164.163 157.488 164.162C157.551 164.161 157.645 167.204 157.699 170.96C157.752 174.715 157.745 177.759 157.682 177.761Z" fill="#263238"/>
<path d="M153.794 174C153.783 173.992 153.844 173.88 153.979 173.692C154.114 173.505 154.329 173.246 154.632 172.961C154.934 172.678 155.329 172.369 155.825 172.121C156.316 171.869 156.917 171.685 157.564 171.677C158.862 171.649 159.967 172.26 160.518 172.881C160.804 173.187 160.983 173.477 161.086 173.684C161.187 173.893 161.226 174.015 161.213 174.021C161.173 174.045 160.981 173.557 160.404 172.994C159.846 172.428 158.798 171.879 157.567 171.903C156.34 171.924 155.342 172.567 154.739 173.081C154.123 173.608 153.826 174.026 153.794 174Z" fill="#263238"/>
<path d="M161.387 178.485L153.915 178.45L153.859 176.763L161.395 176.797L161.387 178.485Z" fill="#263238"/>
<path d="M162.189 99.0567L145.77 96.2207L145.705 97.9835C141.742 101.16 131.179 110.24 124.799 116.46C124.799 116.46 122.432 119.595 123.371 122.488L132.219 145.183L142.375 142.841L136.178 123.646L155.237 114.746C158.943 113.375 162.281 108.697 163.07 106.016C163.746 103.723 162.289 101.993 162.189 99.0567Z" fill="#263238"/>
<path d="M149.125 117.074L153.034 169.496L162.736 169.742C162.736 169.742 164.404 154.26 164.198 144.371C163.992 134.482 163.977 110.245 163.977 110.245L149.125 117.074Z" fill="#263238"/>
<path d="M162.195 99.0586L167.325 99.9858C167.325 99.9858 167.511 112.563 167.149 113.827C166.787 115.091 163.726 118.705 163.726 118.705L149.488 121.426V110.175L162.195 99.0586Z" fill="#263238"/>
<path d="M163.723 105.734L164.092 109.274H167.989L167.325 105.734H163.723Z" fill="#263238"/>
<path d="M160.88 109.274C160.886 109.277 160.844 109.369 160.757 109.542C160.664 109.711 160.554 109.978 160.348 110.285C159.973 110.916 159.342 111.797 158.36 112.683C157.386 113.577 156.071 114.46 154.524 115.26C152.982 116.07 151.22 116.813 149.405 117.658C145.771 119.324 142.482 120.83 140.076 121.932C138.893 122.463 137.929 122.896 137.238 123.206C136.916 123.346 136.658 123.458 136.462 123.543C136.284 123.618 136.188 123.654 136.186 123.647C136.182 123.641 136.272 123.592 136.444 123.505C136.636 123.411 136.889 123.287 137.204 123.133C137.888 122.808 138.843 122.355 140.014 121.799C142.413 120.682 145.694 119.156 149.32 117.468C151.136 116.622 152.898 115.886 154.436 115.09C155.978 114.303 157.286 113.443 158.261 112.573C159.244 111.711 159.886 110.855 160.28 110.241C160.678 109.628 160.859 109.262 160.88 109.274Z" fill="#455A64"/>
<path d="M164.202 118.006C164.232 118.055 162.872 118.96 161.163 120.026C159.455 121.094 158.045 121.919 158.014 121.87C157.984 121.822 159.344 120.917 161.053 119.85C162.761 118.783 164.171 117.957 164.202 118.006Z" fill="#455A64"/>
<path d="M167.325 105.74C167.347 105.736 167.436 106.099 167.57 106.723C167.704 107.346 167.883 108.228 168.084 109.262L168.107 109.377L167.988 109.378C167.39 109.38 166.74 109.382 166.062 109.384C165.368 109.382 164.703 109.379 164.092 109.377L164.003 109.377L163.995 109.29C163.894 108.253 163.815 107.367 163.766 106.739C163.718 106.111 163.7 105.743 163.722 105.74C163.744 105.738 163.803 106.103 163.885 106.727C163.967 107.351 164.073 108.235 164.188 109.27L164.092 109.183C164.703 109.181 165.367 109.179 166.062 109.176C166.74 109.179 167.39 109.181 167.988 109.183L167.892 109.298C167.706 108.261 167.553 107.374 167.452 106.745C167.352 106.115 167.303 105.744 167.325 105.74Z" fill="#455A64"/>
<path d="M148.755 103.336C148.752 103.33 148.811 103.338 148.926 103.356C149.061 103.378 149.231 103.407 149.439 103.442C149.916 103.528 150.571 103.646 151.381 103.792C153.077 104.112 155.421 104.553 158.131 105.063L158.225 105.08L158.211 105.176C158.045 106.285 157.867 107.48 157.682 108.716L157.666 108.828L157.555 108.802C157.521 108.794 157.483 108.786 157.446 108.777C153.554 107.886 150.068 107.074 147.751 106.521L147.678 106.504L147.701 106.434C148.023 105.47 148.282 104.694 148.469 104.133C148.555 103.886 148.623 103.688 148.677 103.532C148.725 103.397 148.751 103.33 148.755 103.336C148.758 103.341 148.739 103.419 148.698 103.564C148.651 103.726 148.592 103.932 148.518 104.188C148.351 104.745 148.119 105.517 147.831 106.475L147.781 106.388C150.108 106.898 153.6 107.683 157.493 108.574C157.531 108.583 157.568 108.592 157.602 108.6L157.476 108.686C157.664 107.45 157.845 106.255 158.013 105.146L158.092 105.259C155.415 104.718 153.098 104.25 151.423 103.911C150.608 103.74 149.951 103.602 149.471 103.502C149.257 103.455 149.083 103.416 148.944 103.386C148.822 103.358 148.758 103.34 148.755 103.336Z" fill="#455A64"/>
<path d="M129.58 122.786C129.576 122.76 129.983 122.657 130.656 122.578C131.328 122.5 132.272 122.457 133.303 122.575C134.335 122.687 135.247 122.94 135.881 123.178C136.516 123.42 136.882 123.627 136.872 123.648C136.858 123.679 136.472 123.52 135.834 123.317C135.195 123.118 134.295 122.892 133.28 122.782C132.266 122.666 131.337 122.684 130.669 122.724C129.999 122.765 129.585 122.817 129.58 122.786Z" fill="#455A64"/>
<path d="M148.462 98.1487C148.406 98.1395 148.403 97.8631 148.456 97.5315C148.51 97.1995 148.599 96.9383 148.656 96.9475C148.713 96.9567 148.716 97.2331 148.662 97.5647C148.608 97.8963 148.519 98.1579 148.462 98.1487Z" fill="#455A64"/>
<path d="M149.263 98.3889C149.206 98.3789 149.217 98.0569 149.286 97.6705C149.355 97.2837 149.456 96.9785 149.513 96.9885C149.57 96.9985 149.56 97.3201 149.491 97.7069C149.422 98.0937 149.32 98.3989 149.263 98.3889Z" fill="#455A64"/>
<path d="M155.906 99.4903C155.849 99.4819 155.846 99.1839 155.899 98.8243C155.952 98.4647 156.041 98.1803 156.098 98.1887C156.155 98.1971 156.158 98.4951 156.105 98.8547C156.052 99.2139 155.963 99.4983 155.906 99.4903Z" fill="#455A64"/>
<path d="M156.659 99.8435C156.602 99.8363 156.6 99.4831 156.655 99.0551C156.71 98.6267 156.801 98.2855 156.858 98.2931C156.915 98.3003 156.917 98.6535 156.862 99.0815C156.807 99.5095 156.716 99.8507 156.659 99.8435Z" fill="#455A64"/>
<path d="M163.076 100.945C163.019 100.94 163.006 100.599 163.048 100.185C163.09 99.7706 163.17 99.4394 163.227 99.4454C163.284 99.451 163.297 99.7918 163.255 100.206C163.213 100.62 163.133 100.951 163.076 100.945Z" fill="#455A64"/>
<path d="M164.044 101.199C163.987 101.196 163.963 100.812 163.99 100.342C164.017 99.8729 164.086 99.4949 164.143 99.4981C164.201 99.5013 164.225 99.8849 164.198 100.354C164.17 100.824 164.101 101.202 164.044 101.199Z" fill="#455A64"/>
<path d="M140.643 79.2139L152.83 82.7347C152.83 82.7347 154.689 75.8591 155.581 71.8055C156.559 67.3683 155.775 65.0635 152.818 63.0047C152.079 62.4899 151.309 62.2331 150.571 62.1375C148.237 61.8351 146.005 63.1999 145.054 65.3523C144.529 66.5423 143.865 68.3171 143.085 70.9503C141.919 74.8863 140.643 79.2139 140.643 79.2139Z" fill="#11489B"/>
<path d="M155.596 71.8009C155.601 71.8021 155.59 71.8733 155.565 72.0101C155.534 72.1617 155.494 72.3609 155.444 72.6117C155.332 73.1365 155.163 73.9029 154.934 74.8689C154.477 76.8017 153.792 79.5353 152.936 82.7545L152.911 82.8477L152.818 82.8209C150.495 82.1529 147.89 81.4037 145.145 80.6141C143.578 80.1605 142.057 79.7197 140.629 79.3061L140.531 79.2777L140.56 79.1805C141.762 75.1677 142.775 71.6749 143.57 69.2045C143.976 67.9725 144.343 67.0037 144.615 66.3469C144.751 66.0185 144.862 65.7677 144.94 65.5993C145.019 65.4313 145.064 65.3453 145.069 65.3477C145.074 65.3501 145.041 65.4409 144.973 65.6133C144.9 65.8009 144.803 66.0533 144.68 66.3725C144.429 67.0361 144.081 68.0093 143.693 69.2445C142.934 71.7189 141.945 75.2237 140.754 79.2381L140.685 79.1125C142.114 79.5241 143.636 79.9625 145.203 80.4145C147.946 81.2105 150.549 81.9657 152.87 82.6393L152.753 82.7057C153.624 79.4925 154.334 76.7661 154.822 74.8421C155.06 73.8925 155.25 73.1361 155.385 72.5985C155.447 72.3505 155.496 72.1533 155.534 72.0037C155.57 71.8689 155.591 71.7997 155.596 71.8009Z" fill="#263238"/>
<path d="M154.773 65.1116C154.744 65.132 154.501 64.7672 154.003 64.2812C153.509 63.7956 152.728 63.2068 151.736 62.8392C150.743 62.4712 149.767 62.4096 149.076 62.4568C148.381 62.5008 147.96 62.62 147.951 62.5852C147.948 62.5724 148.048 62.5284 148.238 62.4716C148.428 62.4144 148.71 62.3512 149.063 62.3096C149.766 62.2236 150.78 62.2624 151.808 62.6436C152.836 63.024 153.631 63.6544 154.108 64.178C154.349 64.4396 154.522 64.6708 154.628 64.838C154.736 65.0052 154.784 65.104 154.773 65.1116Z" fill="#263238"/>
<path d="M141.873 79.6132L141.258 81.6596L129.6 76.6152L127.08 80.4852C127.08 80.4852 136.234 87.2808 139.101 89.4508C141.969 91.6208 145.288 90.8612 147.217 88.3252C149.198 85.7212 149.964 81.984 149.964 81.984L141.873 79.6132Z" fill="#FFBE9D"/>
<path d="M142.499 84.2106C142.438 84.2218 142.299 83.597 141.951 82.901C141.611 82.2014 141.2 81.7106 141.246 81.6694C141.281 81.6298 141.781 82.077 142.138 82.809C142.501 83.5378 142.551 84.2066 142.499 84.2106Z" fill="#EB996E"/>
<path d="M131.41 77.5456L129.869 76.4812C129.05 74.0476 127.527 69.6336 127.077 69.7656C126.581 69.9112 126.375 70.346 126.518 71.2844C126.858 73.5316 126.3 74.5216 124.988 74.2248C124.537 74.1228 120.611 73.4948 120.611 73.4948C120.611 73.4948 119.527 74.1152 120.616 75.176C120.616 75.176 120.087 76.5604 121.532 76.8948C121.532 76.8948 121.712 78.4628 122.798 78.5272C122.798 78.5272 123.957 79.1748 126.395 80.076L128.351 81.2496L131.41 77.5456Z" fill="#FFBE9D"/>
<path d="M123.597 76.0373C123.583 76.1125 122.817 75.9425 121.927 75.6321C121.605 75.5265 121.306 75.4265 121.059 75.3665L121.089 75.1937L121.239 75.2253L121.205 75.3837C120.828 75.2689 120.594 75.1797 120.602 75.1477C120.61 75.1161 120.858 75.1485 121.245 75.2265L121.212 75.3849L121.061 75.3665L121.091 75.1937C121.361 75.2373 121.667 75.3277 121.991 75.4337C122.89 75.7465 123.602 75.9981 123.597 76.0373Z" fill="#EB996E"/>
<path d="M123.878 77.8042C123.863 77.8638 123.297 77.7402 122.642 77.479C121.984 77.2242 121.486 76.9294 121.515 76.875C121.54 76.8278 122.066 77.0322 122.718 77.285C123.368 77.5442 123.892 77.7522 123.878 77.8042Z" fill="#EB996E"/>
</svg>
