<svg xmlns="http://www.w3.org/2000/svg" width="21.499" height="13.749" viewBox="0 0 21.499 13.749">
  <g id="crown_3_" data-name="crown (3)" transform="translate(0 0)">
    <path id="Path_9200" data-name="Path 9200" d="M49.828,60.962H36.119a.633.633,0,0,1-.523-.277c-1.809-2.653-1.948-7.755-1.958-8.512,0-.03,0-.06,0-.09a.633.633,0,0,1,.632-.633h0a.633.633,0,0,1,.633.631s0,.042,0,.108a3.355,3.355,0,0,0,6.708-.105.633.633,0,0,1,.633-.633H43.7a.633.633,0,0,1,.633.633,3.355,3.355,0,0,0,6.709.1c0-.063,0-.1,0-.1a.633.633,0,0,1,.633-.631h0a.633.633,0,0,1,.632.633c0,.03,0,.06,0,.09-.011.757-.149,5.86-1.958,8.512a.633.633,0,0,1-.523.276Zm0,0" transform="translate(-32.224 -49.29)" fill="#fff780"/>
    <path id="Path_9201" data-name="Path 9201" d="M264.709,51.449h0a.633.633,0,0,0-.633.631s0,.04,0,.1a3.355,3.355,0,0,1-6.709-.1.633.633,0,0,0-.633-.633H256v9.512h6.855a.633.633,0,0,0,.523-.276c1.809-2.653,1.948-7.755,1.958-8.512,0-.03,0-.06,0-.09a.633.633,0,0,0-.632-.633Zm0,0" transform="translate(-245.255 -49.289)" fill="#ffc02e"/>
    <path id="Path_9202" data-name="Path 9202" d="M209.327,0a2.046,2.046,0,1,0,2.046,2.046A2.048,2.048,0,0,0,209.327,0Zm0,0" transform="translate(-198.578 0)" fill="#ffc02e"/>
    <path id="Path_9203" data-name="Path 9203" d="M256,0V4.091A2.046,2.046,0,0,0,256,0Zm0,0" transform="translate(-245.255)" fill="#ffa73b"/>
    <path id="Path_9204" data-name="Path 9204" d="M2.046,37.6a2.046,2.046,0,1,0,2.046,2.046A2.048,2.048,0,0,0,2.046,37.6Zm0,0" transform="translate(0 -36.019)" fill="#ffc02e"/>
    <path id="Path_9205" data-name="Path 9205" d="M416.612,37.6a2.046,2.046,0,1,0,2.046,2.046A2.048,2.048,0,0,0,416.612,37.6Zm0,0" transform="translate(-397.159 -36.019)" fill="#ffa73b"/>
    <path id="Path_9206" data-name="Path 9206" d="M92.015,269.919H78.305a.633.633,0,0,1-.633-.633V267.4H92.648v1.888a.633.633,0,0,1-.633.633Zm0,0" transform="translate(-74.411 -256.17)" fill="#ffc02e"/>
    <path id="Path_9207" data-name="Path 9207" d="M256,269.919h6.855a.633.633,0,0,0,.633-.633V267.4H256Zm0,0" transform="translate(-245.255 -256.17)" fill="#ffa73b"/>
  </g>
</svg>
