<svg xmlns="http://www.w3.org/2000/svg" width="18.115" height="16.597" viewBox="0 0 18.115 16.597">
  <g id="filter" transform="translate(-4.18 -5.225)">
    <path id="Path_8156" data-name="Path 8156" d="M81.673,81.852H70.881a2.226,2.226,0,0,0-4.221,0H64.976a.709.709,0,0,0,0,1.417H66.66a2.226,2.226,0,0,0,4.221,0H81.673a.709.709,0,1,0,0-1.417ZM68.77,83.37a.809.809,0,1,1,.809-.809A.81.81,0,0,1,68.77,83.37Z" transform="translate(-60.087 -75.109)" fill="#fafafa"/>
    <path id="Path_8157" data-name="Path 8157" d="M81.673,210.385H79.988a2.226,2.226,0,0,0-4.22,0H64.976a.709.709,0,0,0,0,1.417H75.768a2.226,2.226,0,0,0,4.221,0h1.685a.709.709,0,1,0,0-1.417ZM77.878,211.9a.809.809,0,1,1,.809-.809A.81.81,0,0,1,77.878,211.9Z" transform="translate(-60.087 -197.57)" fill="#fafafa"/>
    <path id="Path_8158" data-name="Path 8158" d="M81.673,338.918H73.917a2.226,2.226,0,0,0-4.221,0H64.976a.709.709,0,0,0,0,1.417H69.7a2.226,2.226,0,0,0,4.221,0h7.756a.709.709,0,1,0,0-1.417Zm-9.867,1.518a.809.809,0,1,1,.809-.809A.81.81,0,0,1,71.806,340.436Z" transform="translate(-60.087 -320.032)" fill="#fafafa"/>
  </g>
</svg>
