<svg xmlns="http://www.w3.org/2000/svg" width="18.267" height="18.591" viewBox="0 0 18.267 18.591">
  <g id="sort-by-attributes" transform="translate(-2.693 -0.205)">
    <g id="Group_349" data-name="Group 349" transform="translate(2.693 0.205)">
      <path id="Path_8270" data-name="Path 8270" d="M254.35,438.536h-2.656a.32.32,0,0,0-.332.332v1.992a.319.319,0,0,0,.332.332h2.656a.319.319,0,0,0,.332-.332v-1.992a.319.319,0,0,0-.332-.332Z" transform="translate(-242.39 -422.601)" fill="#fafafa"/>
      <path id="Path_8271" data-name="Path 8271" d="M11.437,14.607H9.445V.332A.32.32,0,0,0,9.113,0H7.121a.319.319,0,0,0-.332.332V14.607H4.8a.308.308,0,0,0-.311.207.316.316,0,0,0,.073.363l3.32,3.32a.373.373,0,0,0,.239.093.347.347,0,0,0,.239-.093l3.309-3.309a.389.389,0,0,0,.1-.249.319.319,0,0,0-.332-.332Z" transform="translate(-4.457 0)" fill="#fafafa"/>
      <path id="Path_8272" data-name="Path 8272" d="M256.339,292.362h-4.648a.319.319,0,0,0-.332.332v1.992a.319.319,0,0,0,.332.332h4.648a.32.32,0,0,0,.332-.332v-1.992a.32.32,0,0,0-.332-.332Z" transform="translate(-242.387 -281.739)" fill="#fafafa"/>
      <path id="Path_8273" data-name="Path 8273" d="M260.564.093A.324.324,0,0,0,260.325,0h-8.631a.319.319,0,0,0-.332.332V2.324a.319.319,0,0,0,.332.332h8.631a.319.319,0,0,0,.332-.332V.332A.323.323,0,0,0,260.564.093Z" transform="translate(-242.39 0)" fill="#fafafa"/>
      <path id="Path_8274" data-name="Path 8274" d="M258.331,146.181h-6.64a.32.32,0,0,0-.332.332V148.5a.32.32,0,0,0,.332.332h6.64a.319.319,0,0,0,.332-.332v-1.992a.319.319,0,0,0-.332-.332Z" transform="translate(-242.387 -140.869)" fill="#fafafa"/>
    </g>
  </g>
</svg>
